<svg width="30" height="19" viewBox="0 0 30 19" fill="none" xmlns="http://www.w3.org/2000/svg">
<path d="M8.59067 0C9.44267 0 10.2307 0.0666666 10.9507 0.264C11.672 0.396 12.2627 0.66 12.7867 0.989334C13.312 1.31911 13.7053 1.78089 13.9667 2.37467C14.2293 2.968 14.3613 3.69467 14.3613 4.48533C14.3613 5.40933 14.164 6.2 13.7053 6.79333C13.312 7.388 12.656 7.91467 11.8693 8.31067C12.984 8.64133 13.836 9.23467 14.3613 10.0253C14.8867 10.816 15.2133 11.8067 15.2133 12.928C15.2133 13.852 15.016 14.6427 14.688 15.3027C14.3613 15.9627 13.836 16.556 13.2453 16.952C12.6034 17.376 11.8943 17.688 11.148 17.8747C10.3613 18.0733 9.57467 18.2053 8.788 18.2053H0V0H8.59067ZM8.06533 7.38667C8.78667 7.38667 9.37733 7.18933 9.836 6.86C10.2947 6.53067 10.492 5.936 10.492 5.21067C10.492 4.81467 10.4253 4.41867 10.2947 4.156C10.164 3.89333 9.96667 3.69333 9.70533 3.496C9.43813 3.34593 9.15075 3.23502 8.852 3.16667C8.524 3.1 8.19733 3.1 7.80267 3.1H4V7.388L8.06533 7.38667ZM8.26267 15.1707C8.656 15.1707 9.04933 15.104 9.37733 15.0387C9.70533 14.972 10.0333 14.8413 10.2947 14.6427C10.5608 14.4485 10.7841 14.2016 10.9507 13.9173C11.0813 13.588 11.2133 13.192 11.2133 12.7307C11.2133 11.8067 10.9507 11.1467 10.4267 10.6853C9.90133 10.2893 9.18 10.092 8.328 10.092H4V15.172L8.26267 15.1707ZM20.9187 15.104C21.4431 15.632 22.2298 15.896 23.2787 15.896C24 15.896 24.656 15.6987 25.18 15.3693C25.7053 14.9729 26.0333 14.5769 26.164 14.1813H29.3773C28.852 15.764 28.0653 16.8853 27.0173 17.6107C25.9667 18.2707 24.7213 18.6667 23.2133 18.6667C22.2486 18.6681 21.2922 18.489 20.3933 18.1387C19.5842 17.8369 18.8629 17.3383 18.2947 16.688C17.6844 16.0818 17.2341 15.3337 16.984 14.5107C16.656 13.6533 16.524 12.7307 16.524 11.6747C16.524 10.6853 16.656 9.76267 16.984 8.904C17.2986 8.07679 17.7658 7.31605 18.3613 6.66133C18.9507 6.068 19.672 5.54133 20.4587 5.21067C21.3344 4.85907 22.2697 4.67979 23.2133 4.68267C24.328 4.68267 25.312 4.88133 26.164 5.34267C27.0173 5.804 27.672 6.332 28.196 7.124C28.7213 7.84933 29.116 8.70667 29.3773 9.63067C29.508 10.5533 29.5733 11.4773 29.508 12.532H20C20 13.588 20.3933 14.5773 20.9187 15.1053M25.0493 8.18C24.5907 7.71867 23.8693 7.45467 23.016 7.45467C22.5157 7.44717 22.0209 7.56012 21.5733 7.784C21.18 7.98267 20.9187 8.24667 20.656 8.51067C20.4131 8.76462 20.2532 9.0864 20.1973 9.43333C20.1307 9.764 20.0653 10.0267 20.0653 10.2907H25.9667C25.836 9.30133 25.508 8.64267 25.0493 8.18ZM19.2787 1.25333H26.6227V3.03467H19.28L19.2787 1.25333Z" fill="#947EFB"/>
</svg>
