<svg width="245" height="113" viewBox="0 0 245 113" fill="none" xmlns="http://www.w3.org/2000/svg">
<g filter="url(#filter0_dd_1504_1868)">
<rect x="1.77869" y="1.18578" width="241" height="109.32" rx="7.11464" fill="white"/>
<rect x="2.07513" y="1.48222" width="240.407" height="108.727" rx="6.8182" stroke="#E4E7EC" stroke-width="0.592887"/>
<rect x="2.08925" y="1.49634" width="240.379" height="108.698" rx="4.6585" fill="white"/>
<rect x="2.08925" y="1.49634" width="240.379" height="108.698" rx="4.6585" stroke="#EAECF0" stroke-width="0.621134"/>
<path d="M23.5854 22.304H22.2655C22.2279 22.0875 22.1585 21.8958 22.0573 21.7287C21.9561 21.5593 21.8303 21.4158 21.6797 21.2982C21.5291 21.1805 21.3574 21.0923 21.1644 21.0335C20.9739 20.9723 20.768 20.9417 20.5468 20.9417C20.1539 20.9417 19.8057 21.0405 19.5022 21.2382C19.1987 21.4335 18.9611 21.7205 18.7893 22.0993C18.6175 22.4757 18.5317 22.9357 18.5317 23.4792C18.5317 24.0321 18.6175 24.4979 18.7893 24.8767C18.9634 25.2532 19.201 25.5379 19.5022 25.7308C19.8057 25.9214 20.1527 26.0167 20.5433 26.0167C20.7598 26.0167 20.9621 25.9884 21.1503 25.932C21.3409 25.8731 21.5115 25.7873 21.662 25.6743C21.815 25.5614 21.9432 25.4226 22.0467 25.2579C22.1526 25.0932 22.2255 24.905 22.2655 24.6932L23.5854 24.7003C23.536 25.0438 23.429 25.3661 23.2643 25.6673C23.1019 25.9684 22.889 26.2343 22.6255 26.4649C22.362 26.6931 22.0538 26.8719 21.7009 27.0013C21.3479 27.1284 20.9562 27.1919 20.5257 27.1919C19.8904 27.1919 19.3234 27.0448 18.8246 26.7507C18.3258 26.4566 17.9329 26.032 17.6458 25.4767C17.3588 24.9214 17.2153 24.2556 17.2153 23.4792C17.2153 22.7004 17.36 22.0346 17.6494 21.4817C17.9388 20.9264 18.3329 20.5017 18.8316 20.2077C19.3304 19.9136 19.8951 19.7665 20.5257 19.7665C20.928 19.7665 21.3021 19.823 21.6479 19.9359C21.9938 20.0488 22.302 20.2147 22.5726 20.4335C22.8431 20.65 23.0655 20.9158 23.2396 21.2311C23.416 21.544 23.5313 21.9017 23.5854 22.304ZM26.0056 19.8653V27.0931H24.728V19.8653H26.0056ZM27.3193 27.0931V21.6723H28.5969V27.0931H27.3193ZM27.9616 20.9029C27.7593 20.9029 27.5852 20.8358 27.4393 20.7017C27.2934 20.5653 27.2205 20.4018 27.2205 20.2112C27.2205 20.0183 27.2934 19.8547 27.4393 19.7206C27.5852 19.5842 27.7593 19.5159 27.9616 19.5159C28.1663 19.5159 28.3404 19.5842 28.4839 19.7206C28.6298 19.8547 28.7027 20.0183 28.7027 20.2112C28.7027 20.4018 28.6298 20.5653 28.4839 20.7017C28.3404 20.8358 28.1663 20.9029 27.9616 20.9029ZM32.3104 27.1989C31.7669 27.1989 31.2976 27.086 30.9023 26.8601C30.5094 26.6319 30.207 26.3096 29.9953 25.8931C29.7835 25.4744 29.6777 24.9814 29.6777 24.4144C29.6777 23.8568 29.7835 23.3674 29.9953 22.9463C30.2094 22.5228 30.5082 22.1934 30.8917 21.9581C31.2752 21.7205 31.7258 21.6017 32.2434 21.6017C32.5775 21.6017 32.8927 21.6558 33.1892 21.764C33.488 21.8699 33.7515 22.0346 33.9797 22.2581C34.2103 22.4816 34.3915 22.7663 34.5232 23.1122C34.655 23.4557 34.7209 23.865 34.7209 24.3403V24.732H30.2776V23.8709H33.4962C33.4939 23.6262 33.4409 23.4086 33.3374 23.218C33.2339 23.0251 33.0892 22.8734 32.9033 22.7628C32.7198 22.6522 32.5057 22.5969 32.261 22.5969C31.9999 22.5969 31.7705 22.6604 31.5728 22.7875C31.3752 22.9122 31.2211 23.0769 31.1105 23.2816C31.0023 23.4839 30.947 23.7062 30.9446 23.9486V24.7003C30.9446 25.0156 31.0023 25.2861 31.1176 25.512C31.2329 25.7355 31.394 25.9073 31.6011 26.0273C31.8081 26.1449 32.0505 26.2037 32.3281 26.2037C32.5139 26.2037 32.6822 26.1778 32.8328 26.1261C32.9833 26.072 33.1139 25.9931 33.2245 25.8896C33.3351 25.7861 33.4186 25.6579 33.4751 25.5049L34.6679 25.639C34.5926 25.9543 34.4491 26.2296 34.2374 26.4649C34.028 26.6978 33.7597 26.879 33.4327 27.0084C33.1057 27.1354 32.7316 27.1989 32.3104 27.1989ZM37.0792 23.9168V27.0931H35.8017V21.6723H37.0228V22.5934H37.0863C37.211 22.2899 37.4098 22.0487 37.6827 21.8699C37.958 21.6911 38.298 21.6017 38.7026 21.6017C39.0767 21.6017 39.4026 21.6817 39.6802 21.8417C39.9602 22.0016 40.1767 22.2334 40.3296 22.5369C40.4849 22.8404 40.5613 23.2086 40.559 23.6415V27.0931H39.2814V23.8392C39.2814 23.4768 39.1873 23.1933 38.9991 22.9886C38.8132 22.7839 38.5556 22.6816 38.2262 22.6816C38.0027 22.6816 37.8039 22.731 37.6298 22.8298C37.458 22.9263 37.3227 23.0663 37.2239 23.2498C37.1275 23.4333 37.0792 23.6557 37.0792 23.9168ZM44.5646 21.6723V22.6604H41.4483V21.6723H44.5646ZM42.2177 20.3735H43.4953V25.4626C43.4953 25.6343 43.5211 25.7661 43.5729 25.8579C43.627 25.9473 43.6976 26.0084 43.7846 26.0414C43.8717 26.0743 43.9682 26.0908 44.074 26.0908C44.154 26.0908 44.227 26.0849 44.2928 26.0731C44.3611 26.0614 44.4128 26.0508 44.4481 26.0414L44.6634 27.0401C44.5952 27.0637 44.4975 27.0895 44.3705 27.1178C44.2458 27.146 44.0929 27.1625 43.9117 27.1672C43.5917 27.1766 43.3035 27.1284 43.0471 27.0225C42.7906 26.9143 42.5871 26.7472 42.4365 26.5213C42.2883 26.2955 42.2153 26.0131 42.2177 25.6743V20.3735ZM47.9747 27.1989C47.4312 27.1989 46.9618 27.086 46.5665 26.8601C46.1736 26.6319 45.8713 26.3096 45.6595 25.8931C45.4478 25.4744 45.3419 24.9814 45.3419 24.4144C45.3419 23.8568 45.4478 23.3674 45.6595 22.9463C45.8736 22.5228 46.1724 22.1934 46.5559 21.9581C46.9394 21.7205 47.39 21.6017 47.9076 21.6017C48.2417 21.6017 48.557 21.6558 48.8534 21.764C49.1522 21.8699 49.4157 22.0346 49.644 22.2581C49.8745 22.4816 50.0557 22.7663 50.1874 23.1122C50.3192 23.4557 50.3851 23.865 50.3851 24.3403V24.732H45.9419V23.8709H49.1605C49.1581 23.6262 49.1052 23.4086 49.0016 23.218C48.8981 23.0251 48.7534 22.8734 48.5676 22.7628C48.384 22.6522 48.1699 22.5969 47.9252 22.5969C47.6641 22.5969 47.4347 22.6604 47.2371 22.7875C47.0394 22.9122 46.8853 23.0769 46.7747 23.2816C46.6665 23.4839 46.6112 23.7062 46.6089 23.9486V24.7003C46.6089 25.0156 46.6665 25.2861 46.7818 25.512C46.8971 25.7355 47.0582 25.9073 47.2653 26.0273C47.4723 26.1449 47.7147 26.2037 47.9923 26.2037C48.1782 26.2037 48.3464 26.1778 48.497 26.1261C48.6476 26.072 48.7781 25.9931 48.8887 25.8896C48.9993 25.7861 49.0828 25.6579 49.1393 25.5049L50.3321 25.639C50.2569 25.9543 50.1133 26.2296 49.9016 26.4649C49.6922 26.6978 49.424 26.879 49.0969 27.0084C48.7699 27.1354 48.3958 27.1989 47.9747 27.1989ZM55.7503 23.1051L54.5857 23.2322C54.5527 23.1145 54.4951 23.0039 54.4127 22.9004C54.3327 22.7969 54.2245 22.7134 54.0881 22.6498C53.9516 22.5863 53.7846 22.5546 53.5869 22.5546C53.3211 22.5546 53.0975 22.6122 52.9164 22.7275C52.7376 22.8428 52.6493 22.9922 52.6517 23.1757C52.6493 23.3333 52.707 23.4615 52.8246 23.5604C52.9446 23.6592 53.1422 23.7404 53.4175 23.8039L54.3422 24.0015C54.8551 24.1121 55.2362 24.2874 55.4856 24.5274C55.7374 24.7673 55.8644 25.0814 55.8668 25.4696C55.8644 25.8108 55.7644 26.112 55.5668 26.3731C55.3715 26.6319 55.0998 26.8343 54.7515 26.9801C54.4033 27.126 54.0034 27.1989 53.5516 27.1989C52.8881 27.1989 52.3541 27.0601 51.9494 26.7825C51.5447 26.5025 51.3035 26.1131 51.2259 25.6143L52.4717 25.4943C52.5282 25.739 52.6482 25.9237 52.8317 26.0484C53.0152 26.1731 53.254 26.2355 53.5481 26.2355C53.8516 26.2355 54.0951 26.1731 54.2786 26.0484C54.4645 25.9237 54.5574 25.7696 54.5574 25.5861C54.5574 25.4308 54.4974 25.3026 54.3775 25.2014C54.2598 25.1003 54.0763 25.0226 53.8269 24.9685L52.9023 24.7744C52.3823 24.6662 51.9976 24.4838 51.7482 24.2274C51.4988 23.9686 51.3753 23.6415 51.3777 23.2463C51.3753 22.9122 51.4659 22.6228 51.6494 22.3781C51.8353 22.131 52.0929 21.9405 52.4223 21.8064C52.754 21.6699 53.1364 21.6017 53.5693 21.6017C54.2045 21.6017 54.7045 21.737 55.0692 22.0075C55.4362 22.2781 55.6632 22.644 55.7503 23.1051ZM62.0922 21.6723V22.6604H58.976V21.6723H62.0922ZM59.7453 20.3735H61.0229V25.4626C61.0229 25.6343 61.0488 25.7661 61.1005 25.8579C61.1546 25.9473 61.2252 26.0084 61.3123 26.0414C61.3993 26.0743 61.4958 26.0908 61.6017 26.0908C61.6817 26.0908 61.7546 26.0849 61.8205 26.0731C61.8887 26.0614 61.9405 26.0508 61.9758 26.0414L62.191 27.0401C62.1228 27.0637 62.0252 27.0895 61.8981 27.1178C61.7734 27.146 61.6205 27.1625 61.4393 27.1672C61.1193 27.1766 60.8311 27.1284 60.5747 27.0225C60.3182 26.9143 60.1147 26.7472 59.9641 26.5213C59.8159 26.2955 59.743 26.0131 59.7453 25.6743V20.3735ZM65.467 27.1989C64.9376 27.1989 64.4788 27.0825 64.0906 26.8496C63.7024 26.6166 63.4012 26.2908 63.1871 25.872C62.9754 25.4532 62.8695 24.9638 62.8695 24.4038C62.8695 23.8439 62.9754 23.3533 63.1871 22.9322C63.4012 22.511 63.7024 22.184 64.0906 21.9511C64.4788 21.7181 64.9376 21.6017 65.467 21.6017C65.9964 21.6017 66.4552 21.7181 66.8434 21.9511C67.2316 22.184 67.5316 22.511 67.7433 22.9322C67.9574 23.3533 68.0645 23.8439 68.0645 24.4038C68.0645 24.9638 67.9574 25.4532 67.7433 25.872C67.5316 26.2908 67.2316 26.6166 66.8434 26.8496C66.4552 27.0825 65.9964 27.1989 65.467 27.1989ZM65.474 26.1755C65.7611 26.1755 66.0011 26.0967 66.194 25.939C66.3869 25.779 66.5304 25.5649 66.6246 25.2967C66.721 25.0285 66.7693 24.7297 66.7693 24.4003C66.7693 24.0686 66.721 23.7686 66.6246 23.5004C66.5304 23.2298 66.3869 23.0145 66.194 22.8545C66.0011 22.6945 65.7611 22.6145 65.474 22.6145C65.1799 22.6145 64.9353 22.6945 64.74 22.8545C64.5471 23.0145 64.4024 23.2298 64.3059 23.5004C64.2118 23.7686 64.1647 24.0686 64.1647 24.4003C64.1647 24.7297 64.2118 25.0285 64.3059 25.2967C64.4024 25.5649 64.5471 25.779 64.74 25.939C64.9353 26.0967 65.1799 26.1755 65.474 26.1755ZM71.8557 21.6723V22.6604H68.7394V21.6723H71.8557ZM69.5088 20.3735H70.7863V25.4626C70.7863 25.6343 70.8122 25.7661 70.864 25.8579C70.9181 25.9473 70.9887 26.0084 71.0757 26.0414C71.1628 26.0743 71.2592 26.0908 71.3651 26.0908C71.4451 26.0908 71.518 26.0849 71.5839 26.0731C71.6522 26.0614 71.7039 26.0508 71.7392 26.0414L71.9545 27.0401C71.8863 27.0637 71.7886 27.0895 71.6616 27.1178C71.5369 27.146 71.3839 27.1625 71.2028 27.1672C70.8828 27.1766 70.5946 27.1284 70.3381 27.0225C70.0817 26.9143 69.8782 26.7472 69.7276 26.5213C69.5794 26.2955 69.5064 26.0131 69.5088 25.6743V20.3735ZM74.484 27.2025C74.1405 27.2025 73.8311 27.1413 73.5558 27.019C73.2829 26.8943 73.0665 26.7107 72.9065 26.4684C72.7488 26.2261 72.67 25.9273 72.67 25.572C72.67 25.2661 72.7265 25.0132 72.8394 24.8132C72.9524 24.6132 73.1065 24.4532 73.3017 24.3333C73.497 24.2133 73.717 24.1227 73.9617 24.0615C74.2087 23.998 74.464 23.9521 74.7275 23.9239C75.0452 23.8909 75.3028 23.8615 75.5004 23.8356C75.6981 23.8074 75.8416 23.7651 75.931 23.7086C76.0227 23.6498 76.0686 23.5592 76.0686 23.4368V23.4157C76.0686 23.1498 75.9898 22.9439 75.8322 22.7981C75.6745 22.6522 75.4475 22.5793 75.151 22.5793C74.8381 22.5793 74.5899 22.6475 74.4064 22.7839C74.2252 22.9204 74.1029 23.0816 74.0393 23.2674L72.8465 23.098C72.9406 22.7687 73.0959 22.4934 73.3123 22.2722C73.5288 22.0487 73.7935 21.8817 74.1064 21.7711C74.4193 21.6581 74.7652 21.6017 75.144 21.6017C75.4051 21.6017 75.6651 21.6323 75.9239 21.6934C76.1827 21.7546 76.4192 21.8558 76.6333 21.9969C76.8474 22.1358 77.0191 22.3252 77.1485 22.5651C77.2803 22.8051 77.3462 23.1051 77.3462 23.4651V27.0931H76.118V26.3484H76.0757C75.998 26.499 75.8886 26.6402 75.7475 26.7719C75.6086 26.9013 75.4334 27.006 75.2216 27.086C75.0122 27.1636 74.7664 27.2025 74.484 27.2025ZM74.8158 26.2637C75.0722 26.2637 75.2946 26.2131 75.4828 26.112C75.671 26.0084 75.8157 25.872 75.9169 25.7026C76.0204 25.5332 76.0721 25.3485 76.0721 25.1485V24.5097C76.0321 24.5426 75.9639 24.5732 75.8675 24.6015C75.7733 24.6297 75.6675 24.6544 75.5498 24.6756C75.4322 24.6968 75.3157 24.7156 75.2004 24.732C75.0852 24.7485 74.9852 24.7626 74.9005 24.7744C74.7099 24.8003 74.5393 24.8426 74.3887 24.9014C74.2382 24.9603 74.1193 25.0426 74.0323 25.1485C73.9452 25.252 73.9017 25.3861 73.9017 25.5508C73.9017 25.7861 73.9876 25.9637 74.1593 26.0837C74.3311 26.2037 74.5499 26.2637 74.8158 26.2637ZM79.9084 19.8653V27.0931H78.6308V19.8653H79.9084ZM83.6219 27.1989C83.0784 27.1989 82.6091 27.086 82.2138 26.8601C81.8209 26.6319 81.5185 26.3096 81.3068 25.8931C81.095 25.4744 80.9892 24.9814 80.9892 24.4144C80.9892 23.8568 81.095 23.3674 81.3068 22.9463C81.5209 22.5228 81.8197 22.1934 82.2032 21.9581C82.5867 21.7205 83.0373 21.6017 83.5549 21.6017C83.889 21.6017 84.2042 21.6558 84.5007 21.764C84.7995 21.8699 85.063 22.0346 85.2912 22.2581C85.5218 22.4816 85.703 22.7663 85.8347 23.1122C85.9665 23.4557 86.0323 23.865 86.0323 24.3403V24.732H81.5891V23.8709H84.8077C84.8054 23.6262 84.7524 23.4086 84.6489 23.218C84.5454 23.0251 84.4007 22.8734 84.2148 22.7628C84.0313 22.6522 83.8172 22.5969 83.5725 22.5969C83.3114 22.5969 83.082 22.6604 82.8843 22.7875C82.6867 22.9122 82.5326 23.0769 82.422 23.2816C82.3138 23.4839 82.2585 23.7062 82.2561 23.9486V24.7003C82.2561 25.0156 82.3138 25.2861 82.4291 25.512C82.5444 25.7355 82.7055 25.9073 82.9126 26.0273C83.1196 26.1449 83.3619 26.2037 83.6396 26.2037C83.8254 26.2037 83.9937 26.1778 84.1442 26.1261C84.2948 26.072 84.4254 25.9931 84.536 25.8896C84.6466 25.7861 84.7301 25.6579 84.7866 25.5049L85.9794 25.639C85.9041 25.9543 85.7606 26.2296 85.5489 26.4649C85.3395 26.6978 85.0712 26.879 84.7442 27.0084C84.4172 27.1354 84.0431 27.1989 83.6219 27.1989ZM91.3976 23.1051L90.2329 23.2322C90.2 23.1145 90.1424 23.0039 90.06 22.9004C89.98 22.7969 89.8718 22.7134 89.7353 22.6498C89.5989 22.5863 89.4318 22.5546 89.2342 22.5546C88.9683 22.5546 88.7448 22.6122 88.5636 22.7275C88.3848 22.8428 88.2966 22.9922 88.299 23.1757C88.2966 23.3333 88.3542 23.4615 88.4719 23.5604C88.5919 23.6592 88.7895 23.7404 89.0648 23.8039L89.9894 24.0015C90.5023 24.1121 90.8835 24.2874 91.1329 24.5274C91.3846 24.7673 91.5117 25.0814 91.514 25.4696C91.5117 25.8108 91.4117 26.112 91.214 26.3731C91.0188 26.6319 90.747 26.8343 90.3988 26.9801C90.0506 27.126 89.6506 27.1989 89.1989 27.1989C88.5354 27.1989 88.0013 27.0601 87.5966 26.7825C87.192 26.5025 86.9508 26.1131 86.8732 25.6143L88.119 25.4943C88.1754 25.739 88.2954 25.9237 88.4789 26.0484C88.6625 26.1731 88.9013 26.2355 89.1954 26.2355C89.4989 26.2355 89.7424 26.1731 89.9259 26.0484C90.1118 25.9237 90.2047 25.7696 90.2047 25.5861C90.2047 25.4308 90.1447 25.3026 90.0247 25.2014C89.9071 25.1003 89.7236 25.0226 89.4742 24.9685L88.5495 24.7744C88.0296 24.6662 87.6449 24.4838 87.3955 24.2274C87.1461 23.9686 87.0226 23.6415 87.0249 23.2463C87.0226 22.9122 87.1132 22.6228 87.2967 22.3781C87.4825 22.131 87.7402 21.9405 88.0696 21.8064C88.4013 21.6699 88.7836 21.6017 89.2165 21.6017C89.8518 21.6017 90.3518 21.737 90.7164 22.0075C91.0835 22.2781 91.3105 22.644 91.3976 23.1051Z" fill="#101828"/>
<path d="M221.66 22.8221C221.946 22.8221 222.178 22.5903 222.178 22.3045C222.178 22.0186 221.946 21.7869 221.66 21.7869C221.374 21.7869 221.143 22.0186 221.143 22.3045C221.143 22.5903 221.374 22.8221 221.66 22.8221Z" stroke="#98A2B3" stroke-width="1.03522" stroke-linecap="round" stroke-linejoin="round"/>
<path d="M221.66 19.1988C221.946 19.1988 222.178 18.9671 222.178 18.6812C222.178 18.3953 221.946 18.1636 221.66 18.1636C221.374 18.1636 221.143 18.3953 221.143 18.6812C221.143 18.9671 221.374 19.1988 221.66 19.1988Z" stroke="#98A2B3" stroke-width="1.03522" stroke-linecap="round" stroke-linejoin="round"/>
<path d="M221.66 26.4454C221.946 26.4454 222.178 26.2136 222.178 25.9277C222.178 25.6419 221.946 25.4101 221.66 25.4101C221.374 25.4101 221.143 25.6419 221.143 25.9277C221.143 26.2136 221.374 26.4454 221.66 26.4454Z" stroke="#98A2B3" stroke-width="1.03522" stroke-linecap="round" stroke-linejoin="round"/>
<path d="M18.1311 68.0002V65.8721L23.7769 60.3375C24.3169 59.7922 24.7668 59.3079 25.1268 58.8844C25.4868 58.4609 25.7568 58.0506 25.9368 57.6536C26.1167 57.2565 26.2067 56.833 26.2067 56.3831C26.2067 55.8696 26.0903 55.4302 25.8573 55.0649C25.6244 54.6943 25.3041 54.4085 24.8965 54.2073C24.4889 54.0062 24.0257 53.9056 23.5069 53.9056C22.9722 53.9056 22.5038 54.0167 22.1014 54.2391C21.6991 54.4561 21.3868 54.7658 21.1644 55.1681C20.9474 55.5705 20.8389 56.0495 20.8389 56.6054H18.0358C18.0358 55.5731 18.2714 54.6758 18.7425 53.9135C19.2137 53.1512 19.8622 52.561 20.688 52.1428C21.5191 51.7245 22.472 51.5154 23.5466 51.5154C24.6371 51.5154 25.5953 51.7193 26.4211 52.1269C27.247 52.5345 27.8875 53.093 28.3428 53.8023C28.8033 54.5117 29.0336 55.3217 29.0336 56.2322C29.0336 56.841 28.9171 57.4392 28.6842 58.0268C28.4513 58.6144 28.041 59.2655 27.4534 59.9802C26.8711 60.6948 26.0532 61.5603 24.9998 62.5767L22.1967 65.4274V65.5386H29.2798V68.0002H18.1311ZM34.9786 65.7768L34.8754 66.6503C34.8013 67.3173 34.6689 67.9949 34.4783 68.6831C34.2931 69.3766 34.0972 70.0145 33.8907 70.5968C33.6843 71.1791 33.5175 71.637 33.3905 71.9705H31.453C31.5271 71.6476 31.6276 71.2082 31.7547 70.6524C31.887 70.0965 32.0141 69.4719 32.1358 68.7784C32.2576 68.0849 32.3397 67.3808 32.382 66.6662L32.4376 65.7768H34.9786ZM37.4257 64.9828V62.6403L44.3261 51.7378H46.2795V55.0728H45.0884L40.4432 62.4338V62.5609H50.0752V64.9828H37.4257ZM45.1837 68.0002V64.2681L45.2155 63.2199V51.7378H47.9947V68.0002H45.1837ZM52.165 68.0002V65.8721L57.8108 60.3375C58.3507 59.7922 58.8007 59.3079 59.1607 58.8844C59.5207 58.4609 59.7906 58.0506 59.9706 57.6536C60.1506 57.2565 60.2406 56.833 60.2406 56.3831C60.2406 55.8696 60.1241 55.4302 59.8912 55.0649C59.6583 54.6943 59.338 54.4085 58.9304 54.2073C58.5228 54.0062 58.0596 53.9056 57.5408 53.9056C57.0061 53.9056 56.5376 54.0167 56.1353 54.2391C55.733 54.4561 55.4206 54.7658 55.1983 55.1681C54.9813 55.5705 54.8727 56.0495 54.8727 56.6054H52.0697C52.0697 55.5731 52.3053 54.6758 52.7764 53.9135C53.2476 53.1512 53.896 52.561 54.7219 52.1428C55.553 51.7245 56.5059 51.5154 57.5805 51.5154C58.671 51.5154 59.6292 51.7193 60.455 52.1269C61.2808 52.5345 61.9214 53.093 62.3766 53.8023C62.8372 54.5117 63.0675 55.3217 63.0675 56.2322C63.0675 56.841 62.951 57.4392 62.7181 58.0268C62.4852 58.6144 62.0749 59.2655 61.4873 59.9802C60.905 60.6948 60.0871 61.5603 59.0336 62.5767L56.2306 65.4274V65.5386H63.3136V68.0002H52.165ZM71.617 68.3099C70.3094 68.3099 69.1872 67.979 68.2502 67.3173C67.3185 66.6503 66.6012 65.6895 66.0983 64.4349C65.6006 63.1749 65.3518 61.6583 65.3518 59.8849C65.3571 58.1115 65.6086 56.6027 66.1062 55.3587C66.6091 54.1094 67.3264 53.1565 68.2581 52.5001C69.1951 51.8437 70.3147 51.5154 71.617 51.5154C72.9193 51.5154 74.0389 51.8437 74.9759 52.5001C75.9129 53.1565 76.6302 54.1094 77.1278 55.3587C77.6307 56.608 77.8822 58.1168 77.8822 59.8849C77.8822 61.6636 77.6307 63.1829 77.1278 64.4428C76.6302 65.6974 75.9129 66.6556 74.9759 67.3173C74.0442 67.979 72.9246 68.3099 71.617 68.3099ZM71.617 65.8245C72.6334 65.8245 73.4354 65.3242 74.023 64.3237C74.6159 63.3179 74.9124 61.8383 74.9124 59.8849C74.9124 58.5932 74.7774 57.508 74.5074 56.6292C74.2374 55.7504 73.8563 55.0887 73.3639 54.6441C72.8716 54.1941 72.2893 53.9691 71.617 53.9691C70.6059 53.9691 69.8065 54.472 69.2189 55.4778C68.6313 56.4783 68.3349 57.9474 68.3296 59.8849C68.3243 61.1818 68.454 62.2724 68.7187 63.1564C68.9886 64.0405 69.3698 64.7075 69.8621 65.1575C70.3544 65.6021 70.9394 65.8245 71.617 65.8245Z" fill="#101828"/>
<path d="M22.8973 94.0616V86.815M22.8973 86.815L19.274 90.4383M22.8973 86.815L26.5205 90.4383" stroke="#12B76A" stroke-width="1.24227" stroke-linecap="round" stroke-linejoin="round"/>
<path d="M32.3166 91.7031V90.9311L35.0496 86.6141H35.6579V87.7505H35.2719L33.3172 90.8447V90.8941H37.0629V91.7031H32.3166ZM35.3151 92.9383V91.4684L35.3213 91.1164V86.6141H36.2261V92.9383H35.3151ZM40.3409 93.0433C39.853 93.0413 39.4361 92.9126 39.0902 92.6573C38.7444 92.4021 38.4798 92.0305 38.2966 91.5426C38.1134 91.0546 38.0218 90.4669 38.0218 89.7793C38.0218 89.0937 38.1134 88.5081 38.2966 88.0222C38.4819 87.5364 38.7475 87.1658 39.0933 86.9105C39.4412 86.6552 39.8571 86.5276 40.3409 86.5276C40.8247 86.5276 41.2395 86.6563 41.5854 86.9136C41.9312 87.1689 42.1958 87.5394 42.379 88.0253C42.5643 88.5091 42.6569 89.0937 42.6569 89.7793C42.6569 90.4689 42.5653 91.0577 42.3821 91.5456C42.1988 92.0315 41.9343 92.4031 41.5884 92.6604C41.2426 92.9157 40.8267 93.0433 40.3409 93.0433ZM40.3409 92.2188C40.7691 92.2188 41.1036 92.0099 41.3445 91.592C41.5874 91.174 41.7089 90.5698 41.7089 89.7793C41.7089 89.2543 41.6533 88.8107 41.5421 88.4484C41.433 88.084 41.2755 87.8081 41.0697 87.6208C40.8658 87.4314 40.6229 87.3367 40.3409 87.3367C39.9147 87.3367 39.5802 87.5466 39.3373 87.9666C39.0943 88.3866 38.9719 88.9908 38.9698 89.7793C38.9698 90.3063 39.0244 90.752 39.1335 91.1164C39.2446 91.4787 39.4021 91.7536 39.6059 91.9409C39.8097 92.1262 40.0547 92.2188 40.3409 92.2188ZM47.0535 91.7525V91.419C47.0535 91.1802 47.1029 90.962 47.2017 90.7644C47.3026 90.5647 47.4487 90.4051 47.6402 90.2857C47.8337 90.1643 48.0674 90.1035 48.3412 90.1035C48.6212 90.1035 48.8559 90.1632 49.0452 90.2826C49.2346 90.402 49.3777 90.5616 49.4745 90.7613C49.5733 90.961 49.6227 91.1802 49.6227 91.419V91.7525C49.6227 91.9913 49.5733 92.2106 49.4745 92.4103C49.3757 92.6079 49.2305 92.7675 49.0391 92.8889C48.8497 93.0083 48.617 93.068 48.3412 93.068C48.0633 93.068 47.8286 93.0083 47.6371 92.8889C47.4457 92.7675 47.3005 92.6079 47.2017 92.4103C47.1029 92.2106 47.0535 91.9913 47.0535 91.7525ZM47.773 91.419V91.7525C47.773 91.9296 47.8152 92.0902 47.8996 92.2343C47.984 92.3784 48.1312 92.4504 48.3412 92.4504C48.5491 92.4504 48.6942 92.3784 48.7766 92.2343C48.8589 92.0902 48.9001 91.9296 48.9001 91.7525V91.419C48.9001 91.242 48.86 91.0814 48.7797 90.9373C48.7014 90.7932 48.5553 90.7211 48.3412 90.7211C48.1353 90.7211 47.9891 90.7932 47.9027 90.9373C47.8162 91.0814 47.773 91.242 47.773 91.419ZM43.8728 88.1334V87.7999C43.8728 87.5611 43.9222 87.3418 44.021 87.1421C44.1219 86.9424 44.2681 86.7829 44.4595 86.6635C44.653 86.5441 44.8867 86.4844 45.1605 86.4844C45.4405 86.4844 45.6752 86.5441 45.8646 86.6635C46.054 86.7829 46.1971 86.9424 46.2938 87.1421C46.3906 87.3418 46.439 87.5611 46.439 87.7999V88.1334C46.439 88.3722 46.3895 88.5914 46.2907 88.7911C46.194 88.9888 46.0499 89.1483 45.8584 89.2698C45.669 89.3892 45.4364 89.4489 45.1605 89.4489C44.8805 89.4489 44.6448 89.3892 44.4534 89.2698C44.264 89.1483 44.1199 88.9888 44.021 88.7911C43.9222 88.5914 43.8728 88.3722 43.8728 88.1334ZM44.5954 87.7999V88.1334C44.5954 88.3104 44.6366 88.471 44.7189 88.6151C44.8033 88.7592 44.9505 88.8313 45.1605 88.8313C45.3664 88.8313 45.5105 88.7592 45.5928 88.6151C45.6772 88.471 45.7194 88.3104 45.7194 88.1334V87.7999C45.7194 87.6228 45.6793 87.4622 45.599 87.3181C45.5187 87.174 45.3726 87.102 45.1605 87.102C44.9546 87.102 44.8085 87.174 44.722 87.3181C44.6376 87.4622 44.5954 87.6228 44.5954 87.7999ZM44.1662 92.9383L48.5141 86.6141H49.2521L44.9042 92.9383H44.1662Z" fill="#027A48"/>
<path d="M60.2406 88.1951L58.5205 92.9383H57.5324L55.8092 88.1951H56.8005L58.0017 91.8452H58.0511L59.2493 88.1951H60.2406ZM64.6626 89.3531L63.8257 89.5014C63.7907 89.3943 63.7352 89.2924 63.659 89.1957C63.5849 89.0989 63.484 89.0196 63.3564 88.9579C63.2287 88.8961 63.0692 88.8652 62.8777 88.8652C62.6163 88.8652 62.3981 88.9239 62.2231 89.0413C62.0481 89.1565 61.9606 89.3058 61.9606 89.489C61.9606 89.6475 62.0193 89.7752 62.1366 89.8719C62.2539 89.9687 62.4433 90.0479 62.7048 90.1097L63.4583 90.2826C63.8947 90.3835 64.22 90.5389 64.4341 90.7489C64.6482 90.9589 64.7552 91.2317 64.7552 91.5673C64.7552 91.8514 64.6729 92.1046 64.5082 92.3269C64.3456 92.5472 64.1181 92.7201 63.8257 92.8457C63.5355 92.9713 63.1989 93.0341 62.816 93.0341C62.2848 93.0341 61.8515 92.9208 61.5159 92.6944C61.1803 92.4659 60.9745 92.1416 60.8983 91.7217L61.7907 91.5858C61.8463 91.8184 61.9606 91.9944 62.1335 92.1138C62.3064 92.2312 62.5319 92.2899 62.8098 92.2899C63.1124 92.2899 63.3543 92.2271 63.5355 92.1015C63.7166 91.9738 63.8072 91.8184 63.8072 91.6352C63.8072 91.487 63.7516 91.3624 63.6405 91.2615C63.5314 91.1607 63.3636 91.0845 63.1371 91.033L62.3342 90.857C61.8916 90.7561 61.5643 90.5956 61.3522 90.3753C61.1423 90.155 61.0373 89.876 61.0373 89.5384C61.0373 89.2584 61.1155 89.0135 61.272 88.8035C61.4284 88.5935 61.6446 88.4298 61.9204 88.3125C62.1963 88.1931 62.5123 88.1334 62.8685 88.1334C63.3811 88.1334 63.7846 88.2445 64.079 88.4669C64.3734 88.6872 64.5679 88.9826 64.6626 89.3531ZM70.1161 93.0341C69.6487 93.0341 69.2463 92.9342 68.9086 92.7345C68.5731 92.5328 68.3137 92.2497 68.1305 91.8853C67.9493 91.5189 67.8587 91.0896 67.8587 90.5976C67.8587 90.1118 67.9493 89.6836 68.1305 89.313C68.3137 88.9424 68.569 88.6532 68.8963 88.4453C69.2257 88.2373 69.6106 88.1334 70.0512 88.1334C70.3188 88.1334 70.5782 88.1776 70.8294 88.2662C71.0805 88.3547 71.306 88.4936 71.5057 88.683C71.7054 88.8724 71.8628 89.1185 71.9781 89.4211C72.0934 89.7216 72.1511 90.0871 72.1511 90.5173V90.8447H68.3806V90.1529H71.2463C71.2463 89.91 71.1969 89.6949 71.098 89.5075C70.9992 89.3181 70.8603 89.1689 70.6812 89.0598C70.5041 88.9507 70.2962 88.8961 70.0574 88.8961C69.798 88.8961 69.5715 88.9599 69.378 89.0876C69.1866 89.2132 69.0383 89.3778 68.9333 89.5817C68.8304 89.7834 68.7789 90.0027 68.7789 90.2394V90.7798C68.7789 91.0968 68.8345 91.3665 68.9457 91.5889C69.0589 91.8112 69.2164 91.9811 69.4182 92.0984C69.6199 92.2137 69.8556 92.2713 70.1253 92.2713C70.3003 92.2713 70.4599 92.2466 70.604 92.1972C70.7481 92.1457 70.8726 92.0696 70.9776 91.9687C71.0826 91.8678 71.1629 91.7433 71.2185 91.595L72.0924 91.7525C72.0224 92.0099 71.8968 92.2353 71.7156 92.4288C71.5365 92.6203 71.3111 92.7695 71.0394 92.8766C70.7697 92.9816 70.4619 93.0341 70.1161 93.0341ZM74.0988 86.6141V92.9383H73.1755V86.6141H74.0988ZM77.6423 92.9383V88.1951H78.5286V88.9671H78.5873C78.6861 88.7057 78.8477 88.5019 79.0721 88.3557C79.2965 88.2075 79.5651 88.1334 79.8781 88.1334C80.1951 88.1334 80.4607 88.2075 80.6748 88.3557C80.8909 88.5039 81.0505 88.7077 81.1534 88.9671H81.2028C81.3161 88.7139 81.4962 88.5122 81.7432 88.3619C81.9903 88.2095 82.2847 88.1334 82.6264 88.1334C83.0567 88.1334 83.4077 88.2682 83.6794 88.5379C83.9532 88.8076 84.0901 89.2142 84.0901 89.7577V92.9383H83.1668V89.8441C83.1668 89.523 83.0793 89.2904 82.9043 89.1462C82.7293 89.0021 82.5204 88.9301 82.2775 88.9301C81.9769 88.9301 81.7432 89.0227 81.5765 89.208C81.4097 89.3912 81.3264 89.6269 81.3264 89.9152V92.9383H80.4061V89.7855C80.4061 89.5281 80.3258 89.3212 80.1653 89.1648C80.0047 89.0083 79.7957 88.9301 79.5384 88.9301C79.3634 88.9301 79.2018 88.9764 79.0536 89.069C78.9074 89.1596 78.789 89.2862 78.6984 89.4489C78.6099 89.6115 78.5657 89.7999 78.5657 90.014V92.9383H77.6423ZM87.3719 93.0341C86.9046 93.0341 86.5021 92.9342 86.1645 92.7345C85.829 92.5328 85.5696 92.2497 85.3863 91.8853C85.2052 91.5189 85.1146 91.0896 85.1146 90.5976C85.1146 90.1118 85.2052 89.6836 85.3863 89.313C85.5696 88.9424 85.8248 88.6532 86.1522 88.4453C86.4816 88.2373 86.8665 88.1334 87.3071 88.1334C87.5747 88.1334 87.8341 88.1776 88.0853 88.2662C88.3364 88.3547 88.5619 88.4936 88.7615 88.683C88.9612 88.8724 89.1187 89.1185 89.234 89.4211C89.3493 89.7216 89.4069 90.0871 89.4069 90.5173V90.8447H85.6365V90.1529H88.5022C88.5022 89.91 88.4527 89.6949 88.3539 89.5075C88.2551 89.3181 88.1161 89.1689 87.937 89.0598C87.76 88.9507 87.5521 88.8961 87.3133 88.8961C87.0539 88.8961 86.8274 88.9599 86.6339 89.0876C86.4424 89.2132 86.2942 89.3778 86.1892 89.5817C86.0863 89.7834 86.0348 90.0027 86.0348 90.2394V90.7798C86.0348 91.0968 86.0904 91.3665 86.2016 91.5889C86.3148 91.8112 86.4723 91.9811 86.674 92.0984C86.8758 92.2137 87.1115 92.2713 87.3812 92.2713C87.5562 92.2713 87.7157 92.2466 87.8598 92.1972C88.0039 92.1457 88.1285 92.0696 88.2335 91.9687C88.3385 91.8678 88.4188 91.7433 88.4744 91.595L89.3483 91.7525C89.2783 92.0099 89.1527 92.2353 88.9715 92.4288C88.7924 92.6203 88.567 92.7695 88.2953 92.8766C88.0256 92.9816 87.7178 93.0341 87.3719 93.0341ZM93.9857 89.3531L93.1489 89.5014C93.1139 89.3943 93.0583 89.2924 92.9821 89.1957C92.908 89.0989 92.8071 89.0196 92.6795 88.9579C92.5518 88.8961 92.3923 88.8652 92.2008 88.8652C91.9394 88.8652 91.7212 88.9239 91.5462 89.0413C91.3712 89.1565 91.2837 89.3058 91.2837 89.489C91.2837 89.6475 91.3424 89.7752 91.4597 89.8719C91.577 89.9687 91.7664 90.0479 92.0279 90.1097L92.7814 90.2826C93.2178 90.3835 93.5431 90.5389 93.7572 90.7489C93.9713 90.9589 94.0783 91.2317 94.0783 91.5673C94.0783 91.8514 93.996 92.1046 93.8313 92.3269C93.6687 92.5472 93.4412 92.7201 93.1489 92.8457C92.8586 92.9713 92.522 93.0341 92.1391 93.0341C91.6079 93.0341 91.1746 92.9208 90.839 92.6944C90.5034 92.4659 90.2976 92.1416 90.2214 91.7217L91.1138 91.5858C91.1694 91.8184 91.2837 91.9944 91.4566 92.1138C91.6295 92.2312 91.855 92.2899 92.1329 92.2899C92.4355 92.2899 92.6774 92.2271 92.8586 92.1015C93.0397 91.9738 93.1303 91.8184 93.1303 91.6352C93.1303 91.487 93.0747 91.3624 92.9636 91.2615C92.8545 91.1607 92.6867 91.0845 92.4602 91.033L91.6573 90.857C91.2147 90.7561 90.8874 90.5956 90.6753 90.3753C90.4654 90.155 90.3604 89.876 90.3604 89.5384C90.3604 89.2584 90.4386 89.0135 90.5951 88.8035C90.7515 88.5935 90.9677 88.4298 91.2435 88.3125C91.5194 88.1931 91.8354 88.1334 92.1916 88.1334C92.7042 88.1334 93.1077 88.2445 93.4021 88.4669C93.6965 88.6872 93.891 88.9826 93.9857 89.3531ZM97.3949 94.717V88.1951H98.2966V88.9641H98.3738C98.4273 88.8652 98.5045 88.751 98.6054 88.6213C98.7063 88.4916 98.8463 88.3784 99.0254 88.2816C99.2045 88.1828 99.4412 88.1334 99.7356 88.1334C100.119 88.1334 100.46 88.2301 100.761 88.4236C101.061 88.6172 101.297 88.8961 101.468 89.2605C101.641 89.6249 101.727 90.0634 101.727 90.576C101.727 91.0886 101.642 91.5281 101.471 91.8946C101.3 92.259 101.066 92.54 100.767 92.7376C100.468 92.9332 100.128 93.031 99.7449 93.031C99.4567 93.031 99.2209 92.9826 99.0377 92.8858C98.8566 92.7891 98.7145 92.6759 98.6116 92.5462C98.5086 92.4165 98.4294 92.3012 98.3738 92.2003H98.3182V94.717H97.3949ZM98.2997 90.5667C98.2997 90.9002 98.3481 91.1926 98.4448 91.4437C98.5416 91.6949 98.6816 91.8915 98.8648 92.0335C99.048 92.1735 99.2724 92.2435 99.538 92.2435C99.8138 92.2435 100.044 92.1705 100.23 92.0243C100.415 91.8761 100.555 91.6753 100.65 91.4221C100.746 91.1689 100.795 90.8838 100.795 90.5667C100.795 90.2538 100.747 89.9728 100.653 89.7237C100.56 89.4746 100.42 89.278 100.233 89.1339C100.047 88.9898 99.8159 88.9177 99.538 88.9177C99.2703 88.9177 99.0439 88.9867 98.8586 89.1246C98.6754 89.2626 98.5364 89.455 98.4417 89.7021C98.347 89.9491 98.2997 90.2373 98.2997 90.5667ZM104.142 93.0433C103.842 93.0433 103.57 92.9877 103.327 92.8766C103.084 92.7634 102.892 92.5997 102.75 92.3856C102.61 92.1715 102.54 91.909 102.54 91.5981C102.54 91.3305 102.591 91.1102 102.694 90.9373C102.797 90.7644 102.936 90.6275 103.111 90.5266C103.286 90.4257 103.481 90.3495 103.698 90.2981C103.914 90.2466 104.134 90.2075 104.358 90.1807C104.642 90.1478 104.873 90.121 105.05 90.1004C105.227 90.0778 105.356 90.0418 105.436 89.9924C105.516 89.943 105.557 89.8627 105.557 89.7515V89.7299C105.557 89.4602 105.48 89.2512 105.328 89.103C105.178 88.9548 104.953 88.8807 104.655 88.8807C104.344 88.8807 104.099 88.9496 103.92 89.0876C103.743 89.2234 103.62 89.3748 103.552 89.5415L102.685 89.3439C102.788 89.0557 102.938 88.823 103.136 88.646C103.335 88.4669 103.565 88.3372 103.824 88.2569C104.084 88.1745 104.356 88.1334 104.642 88.1334C104.832 88.1334 105.033 88.156 105.245 88.2013C105.459 88.2445 105.658 88.3248 105.844 88.4422C106.031 88.5595 106.184 88.7273 106.304 88.9455C106.423 89.1617 106.483 89.4427 106.483 89.7886V92.9383H105.581V92.2899H105.544C105.484 92.4093 105.395 92.5266 105.276 92.6419C105.156 92.7572 105.003 92.8529 104.815 92.9291C104.628 93.0052 104.404 93.0433 104.142 93.0433ZM104.343 92.3022C104.598 92.3022 104.816 92.2518 104.998 92.1509C105.181 92.05 105.32 91.9183 105.414 91.7556C105.511 91.5909 105.56 91.4149 105.56 91.2276V90.6161C105.527 90.6491 105.463 90.68 105.368 90.7088C105.276 90.7355 105.17 90.7592 105.05 90.7798C104.931 90.7983 104.814 90.8158 104.701 90.8323C104.588 90.8467 104.493 90.8591 104.417 90.8694C104.238 90.892 104.074 90.9301 103.926 90.9836C103.78 91.0371 103.663 91.1143 103.574 91.2152C103.488 91.314 103.444 91.4458 103.444 91.6105C103.444 91.839 103.529 92.0119 103.698 92.1293C103.866 92.2446 104.081 92.3022 104.343 92.3022ZM111.267 89.3531L110.43 89.5014C110.395 89.3943 110.34 89.2924 110.263 89.1957C110.189 89.0989 110.088 89.0196 109.961 88.9579C109.833 88.8961 109.674 88.8652 109.482 88.8652C109.221 88.8652 109.003 88.9239 108.828 89.0413C108.653 89.1565 108.565 89.3058 108.565 89.489C108.565 89.6475 108.624 89.7752 108.741 89.8719C108.858 89.9687 109.048 90.0479 109.309 90.1097L110.063 90.2826C110.499 90.3835 110.824 90.5389 111.039 90.7489C111.253 90.9589 111.36 91.2317 111.36 91.5673C111.36 91.8514 111.277 92.1046 111.113 92.3269C110.95 92.5472 110.723 92.7201 110.43 92.8457C110.14 92.9713 109.803 93.0341 109.42 93.0341C108.889 93.0341 108.456 92.9208 108.12 92.6944C107.785 92.4659 107.579 92.1416 107.503 91.7217L108.395 91.5858C108.451 91.8184 108.565 91.9944 108.738 92.1138C108.911 92.2312 109.136 92.2899 109.414 92.2899C109.717 92.2899 109.959 92.2271 110.14 92.1015C110.321 91.9738 110.412 91.8184 110.412 91.6352C110.412 91.487 110.356 91.3624 110.245 91.2615C110.136 91.1607 109.968 91.0845 109.742 91.033L108.939 90.857C108.496 90.7561 108.169 90.5956 107.957 90.3753C107.747 90.155 107.642 89.876 107.642 89.5384C107.642 89.2584 107.72 89.0135 107.876 88.8035C108.033 88.5935 108.249 88.4298 108.525 88.3125C108.801 88.1931 109.117 88.1334 109.473 88.1334C109.986 88.1334 110.389 88.2445 110.683 88.4669C110.978 88.6872 111.172 88.9826 111.267 89.3531ZM113.755 93.0433C113.455 93.0433 113.183 92.9877 112.94 92.8766C112.697 92.7634 112.505 92.5997 112.363 92.3856C112.223 92.1715 112.153 91.909 112.153 91.5981C112.153 91.3305 112.204 91.1102 112.307 90.9373C112.41 90.7644 112.549 90.6275 112.724 90.5266C112.899 90.4257 113.094 90.3495 113.311 90.2981C113.527 90.2466 113.747 90.2075 113.971 90.1807C114.255 90.1478 114.486 90.121 114.663 90.1004C114.84 90.0778 114.969 90.0418 115.049 89.9924C115.129 89.943 115.17 89.8627 115.17 89.7515V89.7299C115.17 89.4602 115.093 89.2512 114.941 89.103C114.791 88.9548 114.566 88.8807 114.268 88.8807C113.957 88.8807 113.712 88.9496 113.533 89.0876C113.356 89.2234 113.233 89.3748 113.165 89.5415L112.298 89.3439C112.401 89.0557 112.551 88.823 112.749 88.646C112.948 88.4669 113.178 88.3372 113.437 88.2569C113.697 88.1745 113.969 88.1334 114.255 88.1334C114.445 88.1334 114.646 88.156 114.858 88.2013C115.072 88.2445 115.271 88.3248 115.457 88.4422C115.644 88.5595 115.797 88.7273 115.917 88.9455C116.036 89.1617 116.096 89.4427 116.096 89.7886V92.9383H115.194V92.2899H115.157C115.098 92.4093 115.008 92.5266 114.889 92.6419C114.769 92.7572 114.616 92.8529 114.428 92.9291C114.241 93.0052 114.017 93.0433 113.755 93.0433ZM113.956 92.3022C114.211 92.3022 114.429 92.2518 114.611 92.1509C114.794 92.05 114.933 91.9183 115.028 91.7556C115.124 91.5909 115.173 91.4149 115.173 91.2276V90.6161C115.14 90.6491 115.076 90.68 114.981 90.7088C114.889 90.7355 114.783 90.7592 114.663 90.7798C114.544 90.7983 114.427 90.8158 114.314 90.8323C114.201 90.8467 114.106 90.8591 114.03 90.8694C113.851 90.892 113.687 90.9301 113.539 90.9836C113.393 91.0371 113.276 91.1143 113.187 91.2152C113.101 91.314 113.057 91.4458 113.057 91.6105C113.057 91.839 113.142 92.0119 113.311 92.1293C113.479 92.2446 113.695 92.3022 113.956 92.3022ZM119.101 93.031C118.718 93.031 118.377 92.9332 118.076 92.7376C117.778 92.54 117.543 92.259 117.372 91.8946C117.203 91.5281 117.119 91.0886 117.119 90.576C117.119 90.0634 117.204 89.6249 117.375 89.2605C117.548 88.8961 117.785 88.6172 118.085 88.4236C118.386 88.2301 118.727 88.1334 119.108 88.1334C119.402 88.1334 119.639 88.1828 119.818 88.2816C119.999 88.3784 120.139 88.4916 120.238 88.6213C120.339 88.751 120.417 88.8652 120.472 88.9641H120.528V86.6141H121.451V92.9383H120.55V92.2003H120.472C120.417 92.3012 120.337 92.4165 120.232 92.5462C120.129 92.6759 119.987 92.7891 119.805 92.8858C119.624 92.9826 119.39 93.031 119.101 93.031ZM119.305 92.2435C119.571 92.2435 119.795 92.1735 119.978 92.0335C120.164 91.8915 120.304 91.6949 120.398 91.4437C120.495 91.1926 120.543 90.9002 120.543 90.5667C120.543 90.2373 120.496 89.9491 120.401 89.7021C120.307 89.455 120.168 89.2626 119.985 89.1246C119.801 88.9867 119.575 88.9177 119.305 88.9177C119.027 88.9177 118.796 88.9898 118.61 89.1339C118.425 89.278 118.285 89.4746 118.19 89.7237C118.098 89.9728 118.051 90.2538 118.051 90.5667C118.051 90.8838 118.099 91.1689 118.194 91.4221C118.288 91.6753 118.428 91.8761 118.613 92.0243C118.801 92.1705 119.031 92.2435 119.305 92.2435ZM124.767 93.0341C124.322 93.0341 123.934 92.9322 123.603 92.7284C123.272 92.5245 123.014 92.2394 122.831 91.873C122.648 91.5065 122.556 91.0783 122.556 90.5884C122.556 90.0963 122.648 89.6661 122.831 89.2976C123.014 88.9291 123.272 88.6429 123.603 88.4391C123.934 88.2353 124.322 88.1334 124.767 88.1334C125.212 88.1334 125.6 88.2353 125.931 88.4391C126.263 88.6429 126.52 88.9291 126.703 89.2976C126.887 89.6661 126.978 90.0963 126.978 90.5884C126.978 91.0783 126.887 91.5065 126.703 91.873C126.52 92.2394 126.263 92.5245 125.931 92.7284C125.6 92.9322 125.212 93.0341 124.767 93.0341ZM124.77 92.259C125.058 92.259 125.297 92.1828 125.487 92.0305C125.676 91.8781 125.816 91.6753 125.907 91.4221C125.999 91.1689 126.046 90.8899 126.046 90.5853C126.046 90.2826 125.999 90.0047 125.907 89.7515C125.816 89.4962 125.676 89.2914 125.487 89.137C125.297 88.9826 125.058 88.9054 124.77 88.9054C124.48 88.9054 124.239 88.9826 124.048 89.137C123.858 89.2914 123.717 89.4962 123.625 89.7515C123.534 90.0047 123.489 90.2826 123.489 90.5853C123.489 90.8899 123.534 91.1689 123.625 91.4221C123.717 91.6753 123.858 91.8781 124.048 92.0305C124.239 92.1828 124.48 92.259 124.77 92.259Z" fill="#667085"/>
<mask id="mask0_1504_1868" style="mask-type:alpha" maskUnits="userSpaceOnUse" x="148" y="57" width="80" height="40">
<rect width="79.5052" height="39.7526" transform="translate(148.366 57.1858)" fill="url(#paint0_linear_1504_1868)"/>
</mask>
<g mask="url(#mask0_1504_1868)">
<path d="M151.227 92.1406L148.366 96.9384H227.871V57.1858L226.742 64.0397H225.236C224.835 65.182 224.002 67.4666 223.881 67.4666C223.761 67.4666 222.978 68.8374 222.601 69.5228L219.364 71.579L217.482 74.3205L214.47 71.579L212.889 69.5228L210.63 74.3205H208.296L206.339 69.5228C205.586 68.8374 204.05 67.4666 203.93 67.4666C203.809 67.4666 202.825 66.0958 202.349 65.4104H201.144L198.283 67.4666L195.798 69.5228L194.669 74.3205L191.281 76.3767L189.549 78.4328L187.592 81.8598L185.71 86.3577H184.881L182.623 86.786L180.439 81.8598L178.557 78.4328H177.428L175.47 76.3767L172.685 78.4328H170.05L167.414 81.8598L164.779 85.9721L162.822 90.0845L160.714 92.1406L157.853 90.0845L155.594 92.1406L153.335 94.1968L151.227 92.1406Z" fill="#ECFDF3"/>
</g>
<path d="M148.366 96.9384L151.227 92.1406L153.335 94.1968L155.594 92.1406L157.853 90.0845L160.714 92.1406L162.822 90.0845L164.779 85.9721L167.414 81.8598L170.05 78.4328H172.685L175.47 76.3767L177.428 78.4328H178.557L180.439 81.8598L182.623 86.786L184.881 86.3577H185.71L187.592 81.8598L189.549 78.4328L191.281 76.3767L194.669 74.3205L195.798 69.5228L198.283 67.4666L201.144 65.4104H202.349C202.825 66.0958 203.809 67.4666 203.93 67.4666C204.05 67.4666 205.586 68.8374 206.339 69.5228L208.296 74.3205H210.63L212.889 69.5228L214.47 71.579L217.482 74.3205L219.364 71.579L222.601 69.5228C222.978 68.8374 223.761 67.4666 223.881 67.4666C224.002 67.4666 224.835 65.182 225.236 64.0397H226.742L227.871 57.1858" stroke="#12B76A" stroke-width="1.24227" stroke-linecap="round" stroke-linejoin="round"/>
<g opacity="0.2">
<rect x="194.951" y="59.6703" width="12.4227" height="12.4227" rx="6.21134" stroke="#12B76A" stroke-width="1.24227"/>
</g>
<rect x="198.057" y="62.7759" width="6.21134" height="6.21134" rx="3.10567" fill="white"/>
<rect x="198.057" y="62.7759" width="6.21134" height="6.21134" rx="3.10567" stroke="#12B76A" stroke-width="1.24227"/>
</g>
<defs>
<filter id="filter0_dd_1504_1868" x="2.65837e-05" y="2.44379e-06" width="244.557" height="112.877" filterUnits="userSpaceOnUse" color-interpolation-filters="sRGB">
<feFlood flood-opacity="0" result="BackgroundImageFix"/>
<feColorMatrix in="SourceAlpha" type="matrix" values="0 0 0 0 0 0 0 0 0 0 0 0 0 0 0 0 0 0 127 0" result="hardAlpha"/>
<feOffset dy="0.592887"/>
<feGaussianBlur stdDeviation="0.592887"/>
<feColorMatrix type="matrix" values="0 0 0 0 0.0627451 0 0 0 0 0.0941176 0 0 0 0 0.156863 0 0 0 0.06 0"/>
<feBlend mode="normal" in2="BackgroundImageFix" result="effect1_dropShadow_1504_1868"/>
<feColorMatrix in="SourceAlpha" type="matrix" values="0 0 0 0 0 0 0 0 0 0 0 0 0 0 0 0 0 0 127 0" result="hardAlpha"/>
<feOffset dy="0.592887"/>
<feGaussianBlur stdDeviation="0.88933"/>
<feColorMatrix type="matrix" values="0 0 0 0 0.0627451 0 0 0 0 0.0941176 0 0 0 0 0.156863 0 0 0 0.1 0"/>
<feBlend mode="normal" in2="effect1_dropShadow_1504_1868" result="effect2_dropShadow_1504_1868"/>
<feBlend mode="normal" in="SourceGraphic" in2="effect2_dropShadow_1504_1868" result="shape"/>
</filter>
<linearGradient id="paint0_linear_1504_1868" x1="39.7526" y1="0" x2="39.7526" y2="39.7526" gradientUnits="userSpaceOnUse">
<stop/>
<stop offset="1" stop-opacity="0"/>
</linearGradient>
</defs>
</svg>
