<svg width="41" height="41" viewBox="0 0 41 41" fill="none" xmlns="http://www.w3.org/2000/svg">
<g clip-path="url(#clip0_43_676)">
<path fill-rule="evenodd" clip-rule="evenodd" d="M16.1297 8.02502C16.0206 7.37784 15.9385 6.738 15.8854 6.09809C15.8054 5.13822 15.8548 4.17101 15.8265 3.21115C15.8141 2.80393 15.7654 1.74227 15.785 1.58957C15.9632 0.258841 17.0372 0.0552083 17.3513 0.0188497C17.5033 -0.00296548 19.0638 -0.177409 19.4005 1.55326C19.8135 3.66933 19.9459 5.79992 19.7997 7.8869C20.1408 9.6612 20.724 11.4282 21.4941 13.028C24.5584 19.3907 30.3975 20.0088 36.7239 19.9507C37.6969 19.9361 38.5048 20.6996 38.5557 21.6668C38.6066 22.6412 37.8824 23.4847 36.9138 23.572C33.3775 23.9137 27.1034 26.7498 24.9343 29.7021C24.4805 30.3202 24.2166 31.8109 23.8675 33.2725C23.3803 35.3013 22.8008 37.3083 22.1514 38.1518C22.054 38.2827 20.8694 39.6207 20.516 39.8171C19.6667 40.2825 18.9868 40.0134 18.6006 39.7661C18.2145 39.5189 17.7775 39.0317 17.6029 38.2245C17.4204 37.381 17.5746 35.6503 17.5462 35.2794C17.443 33.9342 17.1739 31.2945 16.6249 29.0258C16.329 27.8041 16.0134 26.677 15.4912 26.1171C13.5584 24.0446 10.4679 24.3501 7.86539 24.6918C7.56652 24.7282 7.26766 24.7719 6.96952 24.8082C5.91003 25.1209 4.78507 25.3536 3.59614 25.4917C1.80075 25.7026 1.50554 24.0519 1.48954 23.9428C1.45609 23.7029 1.33173 22.4667 2.685 21.9722C2.83261 21.9213 3.92193 21.6813 4.34151 21.5868C4.92615 21.4559 5.51733 21.3541 6.11071 21.2596C12.24 19.3544 15.569 14.0024 16.1297 8.02502ZM18.2334 14.6351C20.5473 19.4199 24.0588 21.7323 28.2211 22.7794H28.2204C25.6215 24.1392 23.2574 25.8408 22.0045 27.5497C21.5289 28.1969 21.0926 29.4985 20.6992 30.9601C20.4862 29.6003 20.1982 28.1531 19.8179 26.9169C19.3853 25.5062 18.8028 24.3356 18.1527 23.6375C16.8976 22.2922 15.3225 21.5432 13.6289 21.1724C15.6563 19.3762 17.1936 17.1366 18.2334 14.6351Z" fill="#F0C48A"/>
</g>
<defs>
<clipPath id="clip0_43_676">
<rect width="40.7216" height="40.7216" fill="white"/>
</clipPath>
</defs>
</svg>
