<svg width="462" height="97" viewBox="0 0 462 97" fill="none" xmlns="http://www.w3.org/2000/svg">
<g clip-path="url(#clip0_1307_4522)">
<path d="M57.7653 19.4577C62.4825 19.1316 66.6204 21.0881 69.2687 24.838L102.869 77.8263C110.234 91.8478 90.7031 103.342 81.7652 90.2989L58.9239 54.3484L35.8343 90.625C31.9447 96.2499 24.1654 97.7173 18.5378 93.8043C12.993 89.9728 11.5861 82.1469 15.7241 76.7665L18.7861 78.723C16.7999 81.5762 16.4689 85.1631 18.2896 88.1794C21.2689 93.2336 28.4688 93.7227 32.2757 89.3206C41.2964 75.4622 49.986 61.3592 59.0067 47.4192L84.91 88.1794C90.9514 96.9836 103.779 90.2989 100.22 80.598C89.048 62.5004 77.4618 44.566 66.1239 26.6315C62.8136 22.0663 55.9446 21.8218 52.3032 26.1423C42.786 40.816 33.5171 55.6527 24.1654 70.4894C23.8344 70.734 22.8413 70.1634 22.5102 69.9188C22.0964 69.6742 21.0206 68.7775 21.1861 68.2884L48.9102 24.5935C50.9791 21.6587 54.3722 19.7022 58.0136 19.4577H57.7653Z" fill="#0A1D3E"/>
<path d="M102.538 71.7122C102.455 71.7122 102.289 71.6307 102.207 71.5492C101.462 70.6525 100.882 69.2666 100.22 68.3699C100.882 65.8428 100.882 63.3972 99.5583 61.1146L66.0411 8.28936C62.8963 3.6427 55.9446 3.23509 52.2205 7.47415C40.5516 25.6532 28.9654 43.8323 17.5447 62.1744C13.9034 71.7122 26.7309 78.4784 32.7723 70.0003L58.6756 29.0771H58.9239L85.2411 70.4894C86.979 72.772 89.6273 73.9133 92.4411 73.9133L94.51 77.3372C89.5445 78.2339 84.4135 76.1143 81.7652 71.9568L58.8412 35.8433L35.7516 72.2014C26.5654 84.5925 7.77925 73.3427 14.731 59.6472L49.0757 5.51767C53.7929 -0.433324 63.0618 -0.677888 68.1101 4.8655C79.9445 22.8815 91.2824 41.3051 102.951 59.5657C104.689 62.8265 104.855 66.658 103.448 70.0818C103.365 70.3264 102.703 71.7122 102.62 71.7938L102.538 71.7122Z" fill="#02C998"/>
<path d="M331.034 54.593C331.034 45.3811 338.233 38.778 347.916 38.778C357.599 38.778 357.764 40.7345 360.744 44.2399L356.109 48.4789C354.04 46.1148 351.392 44.892 348.247 44.892C342.454 44.892 338.316 48.8865 338.316 54.6745C338.316 60.4624 342.454 64.4569 348.247 64.4569C354.04 64.4569 353.958 63.2341 356.109 60.7885L360.744 65.0276C357.847 68.6145 353.296 70.4894 347.916 70.4894C338.233 70.4894 331.034 63.8863 331.034 54.6745V54.593ZM386.068 56.4679V69.9188H379.613V66.9841C378.289 69.1036 375.806 70.2449 372.33 70.2449C366.702 70.2449 363.392 67.1471 363.392 63.0711C363.392 58.9951 366.371 55.9788 373.654 55.9788H379.199C379.199 53.0441 377.378 51.3321 373.654 51.3321C369.93 51.3321 368.523 52.1473 366.785 53.5332L364.302 48.7235C366.951 46.8485 370.758 45.8703 374.647 45.8703C381.93 45.8703 386.151 49.2126 386.151 56.3049L386.068 56.4679ZM379.199 62.5004V60.0548H374.399C371.171 60.0548 370.095 61.2776 370.095 62.8265C370.095 64.3754 371.585 65.6797 373.985 65.6797C376.385 65.6797 378.289 64.62 379.116 62.5004H379.199ZM390.04 67.7177L392.357 62.8265C394.509 64.2124 397.737 65.1091 400.633 65.1091C403.53 65.1091 405.019 64.2939 405.019 62.9896C405.019 59.1581 390.537 63.0711 390.537 53.6962C390.537 44.3214 394.592 46.1148 401.626 46.1148C408.661 46.1148 408.578 46.8485 410.813 48.1528L408.495 53.0441C406.178 51.7397 403.778 51.2506 401.626 51.2506C398.482 51.2506 397.157 52.2289 397.157 53.4517C397.157 57.4462 411.64 53.6147 411.64 62.908C411.64 72.2014 407.502 70.4079 400.385 70.4079C393.268 70.4079 392.275 69.3482 390.04 67.8808V67.7177ZM440.44 56.4679V69.9188H433.488V57.4462C433.488 53.6147 431.668 51.9028 428.606 51.9028C425.544 51.9028 422.895 53.9408 422.895 58.2614V69.9188H415.944V37.3922H422.895V48.805C424.799 46.93 427.447 46.0333 430.509 46.0333C436.137 46.0333 440.44 49.2941 440.44 56.4679Z" fill="#00C997"/>
<path d="M160.386 37.3922C160.386 37.1476 161.13 36.8215 161.379 36.74C162.206 36.577 164.606 36.6585 165.434 36.74C165.93 36.74 166.51 36.9846 166.592 37.5552V68.533C166.592 68.9406 166.427 69.4297 166.013 69.5927C165.599 69.7558 161.71 69.7558 161.213 69.5927C160.303 69.2667 160.468 67.8808 160.468 67.1471C156.744 71.1416 148.965 71.2231 145.489 66.9026C142.013 62.5005 142.013 52.6365 145.572 48.3159C148.303 44.892 153.682 44.3214 157.572 46.0333L160.303 47.9083V37.3922H160.386ZM153.93 50.1094C147.889 50.9246 148.055 62.9896 152.606 64.783C156.661 66.4134 159.972 63.6417 160.386 59.6472C160.799 55.1636 160.055 49.2126 153.93 50.0278V50.1094Z" fill="#0A1D3E"/>
<path d="M221.71 67.0655C220.22 68.6144 218.399 69.6742 216.248 70.0818C211.199 70.9785 204.661 68.2883 205.324 62.3373C206.068 55.4896 216.248 55.3266 221.379 54.3483C222.123 50.1908 218.151 48.3158 214.675 49.9462C213.351 50.5984 212.854 52.3103 212.11 52.4734C211.53 52.6364 207.641 52.5549 207.227 52.3103C205.82 51.4136 208.551 48.0713 209.379 47.4191C214.923 43.0985 227.42 44.4844 227.751 53.044V69.022C227.586 69.3481 227.089 69.5926 226.758 69.6742C226.179 69.7557 222.868 69.7557 222.454 69.6742C221.461 69.3481 221.875 67.7992 221.792 66.984L221.71 67.0655ZM221.461 58.4244C218.813 58.7504 215.254 58.832 212.937 60.2178C209.627 62.0928 211.448 65.4351 214.841 65.8427C219.558 66.3318 221.792 62.6634 221.461 58.5059V58.4244ZM133.903 67.0655C132.413 68.6144 130.675 69.6742 128.441 70.0818C123.062 70.9785 116.193 67.8807 117.682 61.6036C119.089 55.4081 128.441 55.2451 133.489 54.4299C134.234 50.3538 130.758 48.3158 127.117 49.8647C125.462 50.5169 125.71 51.169 124.8 52.1473C124.303 52.7179 121.076 52.6364 120.248 52.5549C117.517 52.3103 120.165 48.7234 121.241 47.7452C126.62 43.18 139.448 44.3213 139.944 52.9625V69.1035C139.779 69.4296 139.448 69.6742 139.117 69.7557C138.62 69.8372 134.979 69.8372 134.565 69.7557C133.572 69.4296 133.986 67.8807 133.903 67.0655ZM133.738 58.4244C131.089 58.832 127.613 58.832 125.213 60.2178C121.986 62.0113 123.724 65.4351 127.117 65.8427C131.751 66.3318 134.151 62.6634 133.738 58.5059V58.4244ZM176.524 59.4841C176.11 63.6417 179.503 67.147 183.806 65.4351C185.379 64.7829 185.958 63.071 187.448 62.908C188.193 62.8265 191.255 62.8265 191.917 62.908C193.986 63.5601 191.006 66.821 190.179 67.4731C185.462 71.3046 176.524 71.2231 172.551 66.3318C169.324 62.3373 169.158 54.5929 171.724 50.1908C175.862 43.017 188.193 43.2616 191.917 50.6799C192.827 52.4734 193.655 56.0603 193.406 58.0168C193.406 58.4244 193.075 59.4026 192.579 59.4026H176.606L176.524 59.4841ZM186.703 55.4896C187.034 47.3376 176.027 47.2561 176.441 55.4896H186.703ZM237.93 48.4789C243.227 42.854 252.992 44.2398 254.896 52.2288C256.054 57.12 254.896 63.3156 255.31 68.3698C255.31 68.7774 254.979 69.3481 254.647 69.5111C254.234 69.7557 250.592 69.7557 249.847 69.6742C248.937 69.5926 248.772 69.185 248.689 68.3698C248.275 64.0493 249.103 59.158 248.689 54.8375C248.11 48.4789 239.337 48.6419 238.344 54.1853C237.599 58.2613 238.675 64.0493 238.344 68.3698C238.344 69.1035 238.179 69.5926 237.351 69.6742C236.772 69.7557 232.882 69.7557 232.551 69.6742C232.137 69.5111 231.723 68.6959 231.806 68.2068V46.6039C231.972 46.1963 232.303 45.7072 232.799 45.5441C233.379 45.4626 236.523 45.4626 237.103 45.5441C238.427 45.8702 237.848 47.4191 237.93 48.3973V48.4789ZM305.958 45.1365C316.633 44.6474 320.275 53.044 318.206 62.2558C315.806 73.098 297.765 73.1795 295.282 62.2558C293.296 53.7777 296.192 45.6257 305.958 45.1365ZM302.896 51.2506C300.909 53.3701 300.909 60.2178 301.985 62.7449C303.806 66.821 309.847 66.6579 311.502 62.4188C312.247 60.4624 312.247 54.6744 311.337 52.7179C309.93 49.6202 305.296 48.8049 302.896 51.3321V51.2506Z" fill="#0B1D3F"/>
<path d="M274.923 49.5387C274.923 50.0278 274.427 50.5984 273.93 50.5984H267.972V61.8483C267.972 62.0928 268.634 63.4787 268.799 63.7232C270.123 65.2721 274.261 63.7232 275.089 64.8645C275.337 65.1906 275.337 68.1253 275.254 68.696C275.254 69.2666 274.841 69.5927 274.261 69.6742C273.103 69.8373 270.372 69.7557 269.13 69.6742C258.868 68.859 262.344 57.4462 261.765 50.5984H258.041C257.461 50.5984 257.13 49.9463 257.048 49.4572C257.048 48.805 256.882 45.5442 257.71 45.5442H261.847C262.096 43.0986 261.599 40.2454 261.847 37.8813C261.93 37.0661 262.261 36.8215 263.006 36.74C263.751 36.6585 267.061 36.6585 267.558 36.903C267.723 36.903 268.054 37.3921 268.054 37.4737V45.4627H274.178C274.427 45.4627 274.923 46.1148 275.006 46.3594C275.089 46.93 275.006 48.805 275.006 49.4572L274.923 49.5387Z" fill="#0B1E40"/>
<path d="M275.254 46.2779C275.503 46.0333 275.585 45.6257 276.082 45.5442C276.661 45.4627 279.889 45.7072 279.972 45.5442C280.22 43.0986 279.723 40.2454 279.972 37.8813C280.054 37.0661 280.385 36.8215 281.13 36.74C281.875 36.6585 285.185 36.6585 285.682 36.903C285.847 36.903 286.178 37.3921 286.178 37.4737V45.4627H292.303C292.468 45.4627 293.047 45.9518 293.13 46.1148C293.296 46.5224 293.213 49.7017 292.965 50.0278L292.137 50.5169H286.178V61.7667C286.178 62.0113 286.841 63.3972 287.006 63.6417C288.33 65.1906 292.468 63.6417 293.296 64.783C293.544 65.1091 293.544 68.6145 293.296 69.0221C293.13 69.3481 292.716 69.5112 292.385 69.5927C289.489 70.0003 284.275 69.6742 282.123 67.6362C278.316 63.9678 280.385 55.3266 279.806 50.5169H276.082C275.503 50.5169 275.337 49.9463 275.089 49.6202V46.1964L275.254 46.2779ZM197.13 36.8215C197.627 36.6585 200.937 36.74 201.434 36.8215C201.848 36.8215 202.344 37.1476 202.427 37.6367V68.7775C202.427 69.2666 202.096 69.6742 201.599 69.7557C201.02 69.8373 197.627 69.8373 197.048 69.7557C196.551 69.6742 196.22 69.2666 196.22 68.7775V38.1258C196.22 37.6367 196.634 36.903 197.048 36.8215H197.13Z" fill="#0B1E40"/>
<path d="M440.44 42.3648C435.971 42.3648 432.33 38.7779 432.33 34.3758C432.33 29.9737 435.971 26.3868 440.44 26.3868C444.909 26.3868 448.55 29.9737 448.55 34.3758C448.55 38.7779 444.909 42.3648 440.44 42.3648ZM440.44 27.8542C436.799 27.8542 433.902 30.7889 433.902 34.2943C433.902 37.7997 436.881 40.7344 440.44 40.7344C443.999 40.7344 446.978 37.7997 446.978 34.2943C446.978 30.7889 443.999 27.8542 440.44 27.8542Z" fill="#081B3D"/>
<path d="M437.957 30.2183C438.537 30.1368 439.281 30.0552 440.026 30.0552C441.185 30.0552 441.93 30.2998 442.426 30.7074C442.84 31.0335 443.088 31.6041 443.088 32.2563C443.088 33.3161 442.426 34.0497 441.516 34.3758C442.178 34.6204 442.509 35.191 442.757 36.0877C443.005 37.229 443.254 38.0442 443.419 38.3703H442.343C442.178 38.1258 442.012 37.3921 441.764 36.4138C441.516 35.2725 441.102 34.8649 440.109 34.7834H439.116V38.3703H438.04V30.2183H437.957ZM439.033 33.9682H440.109C441.268 33.9682 442.012 33.3161 442.012 32.4193C442.012 31.5226 441.268 30.8704 440.109 30.8704C439.612 30.8704 439.199 30.8704 439.033 30.952V33.9682Z" fill="#081B3D"/>
</g>
<defs>
<clipPath id="clip0_1307_4522">
<rect width="461.792" height="96.7948" fill="white"/>
</clipPath>
</defs>
</svg>
