<svg width="140" height="145" viewBox="0 0 140 145" fill="none" xmlns="http://www.w3.org/2000/svg">
<path d="M100.228 0C122.193 0.000129882 140 17.8068 140 39.7725C140 53.2707 133.274 65.1956 122.992 72.3857C133.274 79.5758 140 91.5016 140 105C140 126.966 122.193 144.772 100.228 144.772C88.1296 144.772 77.2947 139.37 70 130.847C62.7053 139.37 51.8704 144.772 39.7725 144.772C17.8068 144.772 8.24755e-05 126.966 0 105C0 91.5031 6.72414 79.5781 17.0039 72.3877C6.72435 65.1973 1.01254e-05 53.2731 0 39.7764C0 17.8106 17.8067 0.003998 39.7725 0.00390625C51.8692 0.00390625 62.7034 5.40532 69.998 13.9268C77.2927 5.40299 88.1289 0 100.228 0ZM95.0205 10.7939C84.7272 10.7941 75.5077 15.3904 69.3008 22.6416C63.0938 15.3909 53.875 10.7939 43.582 10.7939C24.8918 10.7944 9.74037 25.9464 9.74023 44.6367C9.74032 56.1212 15.4619 66.2685 24.209 72.3867C15.4609 78.5048 9.73842 88.6525 9.73828 100.138C9.73828 118.828 24.8906 133.98 43.5811 133.98C53.875 133.98 63.0938 129.383 69.3008 122.131C75.5077 129.383 84.7267 133.98 95.0205 133.98C113.711 133.98 128.863 118.828 128.863 100.138C128.863 88.6522 123.14 78.5047 114.392 72.3867C123.14 66.2687 128.863 56.1221 128.863 44.6367C128.863 25.9461 113.711 10.7939 95.0205 10.7939Z" fill="#F3CDEF" fill-opacity="0.2"/>
</svg>
