<svg width="465" height="101" viewBox="0 0 465 101" fill="none" xmlns="http://www.w3.org/2000/svg">
<g clip-path="url(#clip0_1357_9644)">
<path fill-rule="evenodd" clip-rule="evenodd" d="M68.7184 16.8669C69.3708 17.0689 69.9558 17.4448 70.4104 17.9544C70.865 18.464 71.1721 19.0878 71.2987 19.7589L76.3352 46.6318C76.8235 49.212 76.9774 51.766 76.846 54.2561H78.8741C79.8702 54.2561 80.8256 54.6518 81.5299 55.3561C82.2343 56.0605 82.63 57.0158 82.63 58.0119C82.63 59.008 82.2343 59.9633 81.5299 60.6676C80.8256 61.372 79.8702 61.7677 78.8741 61.7677H75.5164C74.9747 63.5303 74.2823 65.243 73.447 66.8869L77.4657 70.1018C77.8509 70.4101 78.1716 70.7912 78.4095 71.2234C78.6475 71.6556 78.7979 72.1305 78.8523 72.6208C78.9067 73.1112 78.864 73.6075 78.7266 74.0813C78.5893 74.5552 78.3599 74.9973 78.0516 75.3825C77.7434 75.7677 77.3622 76.0884 76.93 76.3264C76.4978 76.5643 76.023 76.7147 75.5326 76.7691C75.0423 76.8235 74.546 76.7808 74.0721 76.6434C73.5983 76.5061 73.1561 76.2767 72.7709 75.9684L69.2555 73.1553C66.2764 76.6588 62.5696 79.4709 58.393 81.3961C54.2165 83.3212 49.6707 84.313 45.0718 84.3026C40.4723 84.3136 35.9257 83.322 31.7485 81.3969C27.5713 79.4717 23.8639 76.6593 20.8844 73.1553L17.3727 75.9684C16.9875 76.2767 16.5453 76.5061 16.0715 76.6434C15.5976 76.7808 15.1014 76.8235 14.611 76.7691C14.1206 76.7147 13.6458 76.5643 13.2136 76.3264C12.7814 76.0884 12.4003 75.7677 12.092 75.3825C11.7837 74.9973 11.5544 74.5552 11.417 74.0813C11.2796 73.6075 11.2369 73.1112 11.2913 72.6208C11.3457 72.1305 11.4962 71.6556 11.7341 71.2234C11.972 70.7912 12.2927 70.4101 12.6779 70.1018L16.6966 66.8869C15.8606 65.2438 15.1694 63.5309 14.6309 61.7677H11.2695C10.2734 61.7677 9.31808 61.372 8.61372 60.6676C7.90937 59.9633 7.51367 59.008 7.51367 58.0119C7.51367 57.0158 7.90937 56.0605 8.61372 55.3561C9.31808 54.6518 10.2734 54.2561 11.2695 54.2561H13.2976C13.1627 51.7033 13.3342 49.1437 13.8084 46.6318L18.845 19.7627C18.9708 19.0907 19.2778 18.4658 19.7326 17.9554C20.1875 17.4449 20.7731 17.0684 21.4262 16.8662C22.0794 16.6641 22.7753 16.6441 23.4389 16.8084C24.1026 16.9726 24.7088 17.3149 25.1923 17.7984L34.2588 26.8649C34.963 27.5693 35.9182 27.9652 36.9142 27.9654H53.2294C54.2255 27.9652 55.1806 27.5693 55.8848 26.8649L64.9513 17.7984C65.435 17.3149 66.0414 16.9726 66.7053 16.8084C67.3691 16.6443 68.0652 16.6645 68.7184 16.8669ZM47.1488 60.2841L45.0718 61.3245L42.9948 60.2879C42.5521 60.0492 42.066 59.9018 41.5652 59.8545C41.0644 59.8072 40.5593 59.861 40.0797 60.0127C39.6001 60.1643 39.1559 60.4108 38.7734 60.7374C38.3908 61.064 38.0778 61.4641 37.8529 61.914C37.6279 62.3639 37.4957 62.8544 37.4639 63.3564C37.4321 63.8584 37.5015 64.3616 37.6679 64.8363C37.8343 65.311 38.0944 65.7474 38.4326 66.1196C38.7709 66.4919 39.1805 66.7924 39.6371 67.0033L41.7141 68.0437C42.7567 68.5646 43.9063 68.8359 45.0718 68.8359C46.2374 68.8359 47.3869 68.5646 48.4295 68.0437L50.5065 67.0033C50.9631 66.7924 51.3727 66.4919 51.711 66.1196C52.0493 65.7474 52.3093 65.311 52.4757 64.8363C52.6422 64.3616 52.7115 63.8584 52.6797 63.3564C52.648 62.8544 52.5157 62.3639 52.2907 61.914C52.0658 61.4641 51.7528 61.064 51.3703 60.7374C50.9877 60.4108 50.5435 60.1643 50.0639 60.0127C49.5844 59.861 49.0792 59.8072 48.5784 59.8545C48.0777 59.9018 47.5915 60.0492 47.1488 60.2879V60.2841ZM35.6823 42.9886C34.1881 42.9886 32.7552 43.5822 31.6986 44.6387C30.6421 45.6952 30.0486 47.1282 30.0486 48.6223C30.0486 50.1165 30.6421 51.5495 31.6986 52.606C32.7552 53.6625 34.1881 54.2561 35.6823 54.2561C37.1764 54.2561 38.6094 53.6625 39.6659 52.606C40.7224 51.5495 41.316 50.1165 41.316 48.6223C41.316 47.1282 40.7224 45.6952 39.6659 44.6387C38.6094 43.5822 37.1764 42.9886 35.6823 42.9886ZM54.4613 42.9886C52.9672 42.9886 51.5342 43.5822 50.4777 44.6387C49.4212 45.6952 48.8276 47.1282 48.8276 48.6223C48.8276 50.1165 49.4212 51.5495 50.4777 52.606C51.5342 53.6625 52.9672 54.2561 54.4613 54.2561C55.9555 54.2561 57.3885 53.6625 58.445 52.606C59.5015 51.5495 60.0951 50.1165 60.0951 48.6223C60.0951 47.1282 59.5015 45.6952 58.445 44.6387C57.3885 43.5822 55.9555 42.9886 54.4613 42.9886Z" fill="url(#paint0_linear_1357_9644)"/>
</g>
<path d="M110.678 74V29.6238H120.378L136.48 55.8057L129.633 55.7423L145.926 29.6238H155.308V74H144.784V60.5603C144.784 56.6721 144.869 53.1854 145.038 50.1002C145.249 46.9728 145.587 43.9087 146.052 40.908L147.257 44.2045L135.022 63.1595H130.711L118.729 44.3313L119.934 40.908C120.441 43.7396 120.779 46.6769 120.948 49.7199C121.159 52.7205 121.265 56.334 121.265 60.5603V74H110.678ZM165.89 74V40.3375H176.097V74H165.89ZM171.025 33.681C169.081 33.681 167.56 33.2373 166.461 32.3497C165.404 31.4199 164.876 30.1098 164.876 28.4193C164.876 26.8555 165.426 25.5876 166.524 24.6156C167.623 23.6435 169.124 23.1575 171.025 23.1575C172.885 23.1575 174.343 23.6224 175.4 24.5522C176.498 25.4397 177.048 26.7287 177.048 28.4193C177.048 29.983 176.498 31.2509 175.4 32.2229C174.343 33.195 172.885 33.681 171.025 33.681ZM200.459 74.6339C197.205 74.6339 194.267 73.8732 191.647 72.3517C189.069 70.8303 187.04 68.7594 185.561 66.1391C184.082 63.4765 183.342 60.4969 183.342 57.2004C183.342 53.8194 184.082 50.8187 185.561 48.1984C187.04 45.5358 189.069 43.4438 191.647 41.9223C194.267 40.4008 197.205 39.6401 200.459 39.6401C203.46 39.6401 206.207 40.1895 208.7 41.2884C211.236 42.3449 213.222 43.803 214.659 45.6626L209.144 52.3824C208.594 51.664 207.918 51.0089 207.115 50.4172C206.312 49.8255 205.425 49.3606 204.453 49.0225C203.481 48.6844 202.466 48.5154 201.41 48.5154C199.804 48.5154 198.388 48.8957 197.162 49.6565C195.937 50.3749 194.986 51.3893 194.31 52.6994C193.633 54.0096 193.295 55.4888 193.295 57.137C193.295 58.743 193.633 60.2011 194.31 61.5113C195.028 62.7792 196 63.7935 197.226 64.5542C198.451 65.3149 199.825 65.6953 201.346 65.6953C202.445 65.6953 203.46 65.5474 204.389 65.2515C205.319 64.9557 206.164 64.5331 206.925 63.9836C207.728 63.4342 208.468 62.7792 209.144 62.0184L214.659 68.7382C213.222 70.5133 211.215 71.9502 208.637 73.0491C206.059 74.1057 203.333 74.6339 200.459 74.6339ZM220.233 74V27.088H230.313V47.1841L228.221 47.9448C228.686 46.4233 229.51 45.0498 230.693 43.8242C231.919 42.5563 233.377 41.542 235.067 40.7812C236.758 40.0205 238.533 39.6401 240.392 39.6401C242.928 39.6401 245.063 40.1684 246.795 41.225C248.528 42.2393 249.817 43.7819 250.662 45.8528C251.55 47.8814 251.994 50.3961 251.994 53.3967V74H241.787V54.1575C241.787 52.8051 241.597 51.6851 241.217 50.7976C240.836 49.91 240.266 49.255 239.505 48.8323C238.744 48.4097 237.793 48.2195 236.652 48.2618C235.765 48.2618 234.941 48.4097 234.18 48.7055C233.419 48.9591 232.743 49.3606 232.151 49.91C231.602 50.4172 231.179 51.0089 230.883 51.6851C230.587 52.3613 230.44 53.122 230.44 53.9673V74H225.305C224.206 74 223.213 74 222.325 74C221.48 74 220.782 74 220.233 74ZM261.106 74V40.3375H271.313V74H261.106ZM266.241 33.681C264.297 33.681 262.776 33.2373 261.677 32.3497C260.62 31.4199 260.092 30.1098 260.092 28.4193C260.092 26.8555 260.641 25.5876 261.74 24.6156C262.839 23.6435 264.339 23.1575 266.241 23.1575C268.101 23.1575 269.559 23.6224 270.615 24.5522C271.714 25.4397 272.264 26.7287 272.264 28.4193C272.264 29.983 271.714 31.2509 270.615 32.2229C269.559 33.195 268.101 33.681 266.241 33.681ZM318.053 57.3272C318.095 62.8637 316.51 67.1956 313.298 70.3231C310.086 73.4083 305.67 74.9509 300.049 74.9509C296.71 74.9509 293.625 74.1902 290.793 72.6687C288.004 71.1472 285.785 68.9918 284.137 66.2025C282.489 63.4131 281.664 60.2011 281.664 56.5665V47.3109C281.664 43.7185 282.446 40.5276 284.01 37.7383C285.616 34.9489 287.793 32.7935 290.54 31.272C293.329 29.7083 296.435 28.9264 299.859 28.9264C305.48 28.9264 309.875 30.469 313.045 33.5542C316.257 36.5972 317.884 40.908 317.926 46.4867H306.515C306.473 44.3313 305.881 42.6619 304.74 41.4786C303.641 40.2952 302.014 39.7035 299.859 39.7035C297.915 39.7035 296.309 40.3163 295.041 41.542C293.773 42.7676 293.139 44.5004 293.139 46.7403V57.0736C293.139 59.3136 293.794 61.0675 295.104 62.3354C296.456 63.561 298.105 64.1738 300.049 64.1738C304.486 64.1738 306.705 61.8916 306.705 57.3272H318.053ZM328.401 47.0573C328.401 43.7608 329.225 40.6967 330.873 37.8651C332.522 35.0334 334.741 32.7935 337.53 31.1452C340.362 29.497 343.447 28.6728 346.786 28.6728C350.124 28.6728 353.188 29.497 355.978 31.1452C358.809 32.7935 361.049 35.0334 362.698 37.8651C364.346 40.6967 365.17 43.7608 365.17 47.0573V56.8201C365.17 60.1166 364.346 63.1807 362.698 66.0123C361.049 68.8439 358.809 71.0838 355.978 72.7321C353.188 74.3804 350.124 75.2045 346.786 75.2045C343.447 75.2045 340.362 74.3804 337.53 72.7321C334.741 71.0838 332.522 68.8439 330.873 66.0123C329.225 63.1807 328.401 60.1166 328.401 56.8201V47.0573ZM339.939 56.8201C339.939 58.8487 340.573 60.5815 341.841 62.0184C343.109 63.4554 344.757 64.1738 346.786 64.1738C348.772 64.1738 350.399 63.4554 351.667 62.0184C352.935 60.5815 353.569 58.8487 353.569 56.8201V46.9939C353.569 44.923 352.935 43.1902 351.667 41.7955C350.399 40.4008 348.772 39.7035 346.786 39.7035C344.757 39.7035 343.109 40.4008 341.841 41.7955C340.573 43.1902 339.939 44.923 339.939 46.9939V56.8201ZM376.532 73.9366V29.8139H379.005L409.815 59.7996V29.8139H412.16V73.9366H376.532ZM458.136 29.8773V32.2229H427.77V46.3599H452.114V57.5174H427.77V74H425.425V29.8773H458.136Z" fill="url(#paint1_linear_1357_9644)"/>
<defs>
<linearGradient id="paint0_linear_1357_9644" x1="7.51367" y1="50.5005" x2="82.63" y2="50.5005" gradientUnits="userSpaceOnUse">
<stop stop-color="#C000FF"/>
<stop offset="1" stop-color="#00BCB1"/>
</linearGradient>
<linearGradient id="paint1_linear_1357_9644" x1="105.163" y1="50.5" x2="464.163" y2="50.5" gradientUnits="userSpaceOnUse">
<stop stop-color="#C000FF"/>
<stop offset="1" stop-color="#00BCB1"/>
</linearGradient>
<clipPath id="clip0_1357_9644">
<rect width="90.1395" height="90.1395" fill="white" transform="translate(0 5.43024)"/>
</clipPath>
</defs>
</svg>
