<svg width="39" height="40" viewBox="0 0 39 40" fill="none" xmlns="http://www.w3.org/2000/svg">
<path fill-rule="evenodd" clip-rule="evenodd" d="M38.1098 10.8266C38.1098 14.5006 36.2798 17.7472 33.4816 19.7045C36.2798 21.6618 38.1098 24.9084 38.1098 28.5824C38.1098 34.5617 33.2626 39.409 27.2832 39.409C23.9902 39.409 21.0406 37.9389 19.0549 35.6191C17.0692 37.9389 14.1196 39.409 10.8266 39.409C4.84725 39.409 0 34.5617 0 28.5824C0 24.9087 1.82969 21.6624 4.6275 19.705C1.82969 17.7477 0 14.5013 0 10.8277C0 4.8483 4.84725 0.00105 10.8266 0.00105C14.1194 0.00105 17.0688 1.47097 19.0545 3.79041C21.0402 1.47036 23.99 0 27.2832 0C33.2626 0 38.1098 4.84725 38.1098 10.8266ZM18.8043 18.1472C18.3588 18.6324 17.8697 19.0769 17.3431 19.4744C17.3199 19.4577 17.2966 19.4411 17.2732 19.4246C17.8273 19.0483 18.3334 18.6106 18.7809 18.1217C18.7886 18.1302 18.7964 18.1387 18.8043 18.1472ZM33.8672 26.4779C33.8672 23.5623 32.4197 20.9848 30.2043 19.4246C32.4197 17.9202 33.8672 15.4347 33.8672 12.6232C33.8672 8.03214 30.0075 4.31036 25.2464 4.31036C22.6716 4.31036 20.3605 5.39884 18.7809 7.12464C17.2012 5.39884 14.8901 4.31036 12.3153 4.31036C7.55422 4.31036 3.69459 8.03214 3.69459 12.6232C3.69459 15.4347 5.14202 17.9202 7.35751 19.4246C5.14204 20.9848 3.69463 23.5623 3.69463 26.4779C3.69463 31.239 7.55426 35.0986 12.3154 35.0986C14.8901 35.0986 17.2013 33.9699 18.7809 32.1802C20.3605 33.9699 22.6717 35.0986 25.2464 35.0986C30.0075 35.0986 33.8672 31.239 33.8672 26.4779Z" fill="#F3CDEF"/>
</svg>
