<svg width="276" height="123" viewBox="0 0 276 123" fill="none" xmlns="http://www.w3.org/2000/svg">
<g clip-path="url(#clip0_1308_6138)">
<path d="M25.8326 87.1274V87.6839C25.8326 93.2351 21.9946 97.3787 16.4543 97.3787H9.42196V106.861H0V77.4736H16.4543C21.9946 77.4764 25.8326 81.5763 25.8326 87.1274ZM9.42196 90.5018H13.3037C15.3059 90.5018 16.2879 89.3916 16.2879 87.6403V87.2966C16.2879 85.5453 15.3496 84.4351 13.3037 84.4351H9.42196V90.5018Z" fill="black"/>
<path d="M29.2615 106.863V75.8942H37.7451V106.863H29.2615Z" fill="black"/>
<path d="M66.5293 91.1456V99.9456C66.5293 100.884 66.9548 101.612 67.8932 101.612H69.4262V106.525C69.4262 106.525 67.8495 107.382 64.9935 107.382C61.581 107.382 59.4942 106.271 58.7276 104.564C56.8509 106.059 54.3385 107.382 50.4132 107.382C45.724 107.382 42.4861 105.759 42.4861 101.061C42.4861 94.3126 48.1982 93.0305 58.0457 93.0305V91.9203C58.0457 90.0817 56.5972 89.2279 54.7641 89.2279C53.272 89.2279 51.5261 89.6971 51.5261 91.1919V91.3611H43.1735C43.1299 91.1483 43.1299 90.9737 43.1299 90.7609C43.1299 86.6174 47.1807 83.7995 54.895 83.7995C61.0736 83.7968 66.5293 85.589 66.5293 91.1456ZM50.9697 99.9456C50.9697 101.697 52.4209 102.081 53.8694 102.081C56.0434 102.081 58.0457 100.802 58.0457 98.9636V97.0404C53.0183 97.0377 50.9697 98.2761 50.9697 99.9456Z" fill="black"/>
<path d="M77.2058 115.832C75.16 115.832 73.3678 115.451 72.3039 115.063V109.981H75.7164C78.7007 109.981 79.2981 107.974 79.5109 106.863L70.5581 84.3068H79.68L83.9873 99.3018H84.2873L88.2509 84.3068H96.609L88.5946 106.176C86.5405 111.776 83.769 115.832 77.2058 115.832Z" fill="black"/>
<path d="M123.686 95.5892V97.0404H106.806C106.806 100.158 108.082 101.953 111.326 101.953C114.351 101.953 115.459 100.502 115.459 98.6662H123.686C123.686 104.048 119.591 107.379 111.495 107.379C103.399 107.379 98.3223 103.705 98.3223 95.5919C98.3223 87.6894 103.311 83.8022 110.982 83.8022C119.084 83.7967 123.686 87.4711 123.686 95.5892ZM106.849 93.025H115.12C115.12 90.6763 113.713 89.2251 111.326 89.2251C108.47 89.2197 107.15 90.6763 106.849 93.025Z" fill="black"/>
<path d="M143.978 84.2687V91.402H141.248C137.581 91.402 136.258 93.4097 136.258 96.8276V106.866H127.775V84.3096H134.723L135.279 87.7276C136.343 85.0352 138.774 83.7531 141.46 83.7531C143.04 83.7558 143.978 84.2687 143.978 84.2687Z" fill="black"/>
<path d="M174.661 87.1274V87.6839C174.661 93.2351 170.823 97.3787 165.282 97.3787H158.25V106.861H148.828V77.4736H165.282C170.823 77.4764 174.661 81.5763 174.661 87.1274ZM158.25 90.5018H162.132C164.134 90.5018 165.116 89.3916 165.116 87.6403V87.2966C165.116 85.5453 164.178 84.4351 162.132 84.4351H158.25V90.5018Z" fill="#12C6B0"/>
<path d="M194.293 84.2687V91.402H191.563C187.896 91.402 186.573 93.4097 186.573 96.8276V106.866H178.09V84.3096H185.038L185.594 87.7276C186.658 85.0352 189.089 83.7531 191.775 83.7531C193.355 83.7558 194.293 84.2687 194.293 84.2687Z" fill="#12C6B0"/>
<path d="M222.043 95.5892C222.043 103.489 217.016 107.376 209.34 107.376C201.666 107.376 196.68 103.489 196.68 95.5892C196.68 87.6867 201.669 83.7995 209.34 83.7995C217.01 83.7968 222.043 87.6839 222.043 95.5892ZM205.163 94.389V96.8249C205.163 99.8119 206.358 101.607 209.34 101.607C212.321 101.607 213.56 99.8119 213.56 96.8249V94.389C213.56 91.3993 212.324 89.5634 209.34 89.5634C206.353 89.5634 205.163 91.3993 205.163 94.389Z" fill="#12C6B0"/>
<path d="M249.564 95.6273C249.564 103.486 246.026 107.373 240.061 107.373C237.502 107.373 235.371 106.561 233.751 104.809V115.273H225.268V84.3041H232.174L232.9 87.5093C234.564 84.9888 237.033 83.7913 240.063 83.7913C246.024 83.7967 249.564 87.6839 249.564 95.6273ZM233.661 94.8581V96.2684C233.661 98.9171 234.769 101.094 237.412 101.094C240.055 101.094 241.081 99.3427 241.081 96.6939V94.4298C241.081 91.7811 240.058 90.0735 237.412 90.0735C234.771 90.0762 233.661 92.2121 233.661 94.8581Z" fill="#12C6B0"/>
<path d="M275.444 91.0582H267.555C267.555 90.1608 267.086 89.607 266.447 89.307C265.853 88.9633 265.127 88.8814 264.532 88.8814C263.807 88.8814 261.463 88.8814 261.463 90.3326C261.463 93.5788 276 90.2072 276 99.3891C276 105.584 270.547 107.376 264.363 107.376C258.736 107.376 252.767 105.156 252.767 99.52H260.656V99.6891C260.7 101.869 263.13 102.297 264.363 102.297C265.558 102.297 267.901 102.21 267.901 100.63C267.901 97.2559 253.364 100.33 253.364 91.4483C253.364 85.5098 258.736 83.8022 264.66 83.8022C269.988 83.7967 275.444 85.7199 275.444 91.0582Z" fill="#12C6B0"/>
<path d="M128.488 13L132.73 19.9447L136.976 26.8894H128.488H120L124.245 19.9447L128.488 13Z" fill="black"/>
<path d="M140.952 0.0592989V0H100.395C100.388 0 100.384 0.00348817 100.384 0.0104645V0.784838V8.7117V35.5427C100.384 35.5427 100.384 36.4618 100.384 41.4203C100.384 46.3787 104.64 52.5667 109.096 55.7235C112.134 57.8705 115.767 59.2413 119.691 59.5256V59.5814H130.601C130.608 59.5814 130.611 59.5779 130.611 59.5709V55.2282V50.8784C130.611 50.8715 130.606 50.868 130.601 50.868H121.24C115.031 50.9761 110.91 45.6165 109.098 42.6708V36.2421V21.3092V8.72217C109.098 8.71519 109.101 8.7117 109.108 8.7117H122.269H139.11C145.875 8.7117 151.542 14.0626 151.671 20.8279C151.803 27.7501 146.21 33.4236 139.321 33.4236H134.05H130.906C130.899 33.4236 130.895 33.4271 130.895 33.4341V42.1249C130.895 42.1319 130.899 42.1353 130.906 42.1353H139.319C139.504 42.1353 139.685 42.1318 139.869 42.1284C141.677 42.0813 143.43 41.8074 145.099 41.3278C153.915 38.8129 160.384 30.6802 160.384 21.0703C160.383 10.0006 151.805 0.898203 140.952 0.0592989Z" fill="#12C6B0"/>
</g>
<defs>
<clipPath id="clip0_1308_6138">
<rect width="276" height="123" fill="white"/>
</clipPath>
</defs>
</svg>
