<svg width="38" height="41" viewBox="0 0 38 41" fill="none" xmlns="http://www.w3.org/2000/svg">
<path fill-rule="evenodd" clip-rule="evenodd" d="M14.6588 8.02112C14.5497 7.37393 14.4675 6.73409 14.4144 6.09418C14.3344 5.13431 14.3839 4.16711 14.3555 3.20724C14.3432 2.80002 14.2944 1.73837 14.3141 1.58566C14.4922 0.254935 15.5663 0.0513021 15.8804 0.0149434C16.0324 -0.00687173 17.5929 -0.181315 17.9296 1.54936C18.3426 3.66543 18.4749 5.79601 18.3288 7.883C18.6698 9.6573 19.253 11.4243 20.0231 13.0241C23.0874 19.3868 28.9266 20.0049 35.253 19.9468C36.2259 19.9322 37.0339 20.6957 37.0848 21.6629C37.1357 22.6373 36.4114 23.4808 35.4428 23.5681C31.9066 23.9098 25.6325 26.7458 23.4633 29.6982C23.0096 30.3163 22.7456 31.807 22.3966 33.2686C21.9094 35.2974 21.3298 37.3044 20.6805 38.1479C20.583 38.2788 19.3984 39.6168 19.045 39.8132C18.1957 40.2785 17.5158 40.0094 17.1297 39.7622C16.7436 39.515 16.3065 39.0278 16.132 38.2206C15.9495 37.3771 16.1036 35.6464 16.0753 35.2755C15.972 33.9303 15.703 31.2906 15.154 29.0219C14.858 27.8002 14.5424 26.6731 14.0203 26.1132C12.0875 24.0407 8.99699 24.3462 6.39444 24.6879C6.09558 24.7243 5.79671 24.768 5.49857 24.8043C4.43908 25.117 3.31412 25.3496 2.12519 25.4878C0.329803 25.6987 0.0345912 24.048 0.0185934 23.9389C-0.0148565 23.699 -0.139216 22.4628 1.21405 21.9683C1.36167 21.9174 2.45098 21.6774 2.87056 21.5829C3.45521 21.452 4.04639 21.3502 4.63976 21.2557C10.7691 19.3505 14.0981 13.9985 14.6588 8.02112ZM16.7625 14.6312C19.0763 19.416 22.5878 21.7283 26.7502 22.7755H26.7495C24.1505 24.1353 21.7865 25.8369 20.5336 27.5458C20.058 28.1929 19.6217 29.4945 19.2283 30.9562C19.0152 29.5963 18.7273 28.1492 18.347 26.913C17.9143 25.5023 17.3318 24.3317 16.6817 23.6336C15.4266 22.2883 13.8516 21.5393 12.158 21.1684C14.1853 19.3723 15.7226 17.1327 16.7625 14.6312Z" fill="white"/>
</svg>
